<svg width="95" height="95" viewBox="0 0 95 95" fill="none" xmlns="http://www.w3.org/2000/svg">
<path d="M13.4048 27.5269C16.6242 27.5269 18.0291 25.8295 18.0291 23.1954V20.3857C18.0291 18.6297 17.2681 17.5175 15.6877 17.1663C16.9755 16.7566 17.8535 15.7029 17.8535 14.0639V12.425C17.8535 9.73236 16.5657 8.09338 13.639 8.09338C10.361 8.09338 9.1903 10.025 9.1903 12.8347V14.5322H12.117V12.6005C12.117 11.4298 12.4683 10.7275 13.4634 10.7275C14.4584 10.7275 14.8097 11.3713 14.8097 12.425V14.4737C14.8097 15.4688 14.1658 15.9956 13.1121 15.9956H11.8829V18.454H13.2292C14.3414 18.454 14.8097 18.9809 14.8097 19.976V23.1368C14.8097 24.1319 14.3414 24.8344 13.4048 24.8344C12.2927 24.8344 11.9414 24.132 11.9414 22.9613V20.2687H9.01469V22.7857C9.01469 25.6539 10.1854 27.5269 13.4048 27.5269Z" fill="#FFFFF1"/>
<path d="M78.6711 59.253C78.6711 56.6189 76.9735 54.4531 74.398 54.4531C73.1102 54.4531 71.5298 55.858 70.7103 56.736C69.8908 55.858 68.4274 54.4531 67.1397 54.4531C64.5641 54.4531 62.7495 56.6189 62.7495 59.253C62.7495 60.5993 63.2764 61.77 64.0958 62.648L70.7103 69.2625L77.3248 62.648C78.1442 61.77 78.6711 60.5993 78.6711 59.253Z" fill="#FFFFF1"/>
<path d="M50.5743 80.0329C49.989 79.9744 49.5792 79.6231 49.5207 79.1549L46.1842 59.6042L41.0916 69.0283C40.8575 69.4381 40.3892 69.6722 39.9209 69.5551C39.4527 69.4966 39.1015 69.0868 39.0429 68.6186L36.8771 53.5165L32.9553 62.3553C32.7797 62.7651 32.3699 62.9992 31.9602 62.9992H16.624C16.0387 62.9992 15.5119 62.5309 15.5119 61.887C15.5119 61.3017 15.9801 60.7749 16.624 60.7749H31.2578L36.4674 49.1264C36.643 48.6581 37.1113 48.424 37.5795 48.4825C38.0478 48.5411 38.4576 48.9508 38.5161 49.4191L40.7404 64.9894L45.7744 55.6823C46.0086 55.2726 46.4183 55.0385 46.8866 55.1555C47.3549 55.2141 47.7061 55.5653 47.7646 56.0335L50.867 74.1209L62.1642 36.5414C62.2813 36.1317 62.6911 35.7804 63.1008 35.7804C63.5691 35.7219 63.9788 36.0146 64.1544 36.3658L70.125 48.7167C70.3591 49.2435 70.1835 49.8874 69.5982 50.18C69.0714 50.4142 68.4275 50.2386 68.1348 49.6532L63.3935 39.8194L51.5694 79.1549C51.4523 79.7402 51.0426 80.0329 50.5743 80.0329Z" fill="#FFFFF1"/>
<path d="M28.858 11.8397H30.6726V15.9371H29.7361V15.1176C29.5605 15.703 29.2093 16.0542 28.5068 16.0542C27.3947 16.0542 26.8679 15.1762 26.8679 14.0055V10.2592C26.8679 9.03 27.4532 8.21051 28.7995 8.21051C30.2044 8.21051 30.6726 9.03 30.6726 10.1422V10.8446H29.5019V10.0836C29.5019 9.61535 29.3263 9.32268 28.858 9.32268C28.3898 9.32268 28.2142 9.67389 28.2142 10.1422V14.2981C28.2142 14.7664 28.3898 15.1176 28.858 15.1176C29.2678 15.1176 29.5019 14.8835 29.5019 14.3567V13.0104H28.9166V11.8397H28.858ZM31.5507 14.0055V10.2592C31.5507 9.03 32.136 8.21051 33.4823 8.21051C34.8286 8.21051 35.4725 9.08854 35.4725 10.2592V14.0055C35.4725 15.1762 34.8872 16.0542 33.4823 16.0542C32.136 16.0542 31.5507 15.1762 31.5507 14.0055ZM34.1847 14.1811V10.0251C34.1847 9.55682 34.0091 9.20561 33.5408 9.20561C33.0726 9.20561 32.897 9.55682 32.897 10.0251V14.1811C32.897 14.6494 33.0726 15.0006 33.5408 15.0006C33.9506 15.0006 34.1847 14.6494 34.1847 14.1811ZM36.292 14.0055V10.2592C36.292 9.03 36.8773 8.21051 38.2236 8.21051C39.57 8.21051 40.2138 9.08854 40.2138 10.2592V14.0055C40.2138 15.1762 39.6285 16.0542 38.2236 16.0542C36.8773 16.0542 36.292 15.1762 36.292 14.0055ZM38.9261 14.1811V10.0251C38.9261 9.55682 38.7505 9.20561 38.2822 9.20561C37.8139 9.20561 37.6383 9.55682 37.6383 10.0251V14.1811C37.6383 14.6494 37.8139 15.0006 38.2822 15.0006C38.7505 15.0006 38.9261 14.6494 38.9261 14.1811ZM44.9552 10.3178V13.8884C44.9552 15.0591 44.4869 15.9371 43.0821 15.9371H41.0919V8.26905H43.0821C44.4284 8.26905 44.9552 9.14707 44.9552 10.3178ZM42.9064 14.8835C43.4333 14.8835 43.6674 14.5908 43.6674 14.1225V10.0836C43.6674 9.61535 43.4918 9.32268 42.9064 9.32268H42.3796V14.8835H42.9064ZM50.1063 12.6006H48.877V15.9957H47.5892V8.32758H48.877V11.6055H50.1063V8.32758H51.394V15.9957H50.1063V12.6006ZM52.3306 8.26905H55.4329V9.32268H53.6184V11.547H54.9061V12.6006H53.6184V14.942H55.4329V15.9957H52.3306V8.26905ZM56.0183 15.9957L57.4817 8.32758H58.9448L60.4082 15.9957H59.0619L58.8277 14.5908H57.4817L57.2475 15.9957H56.0183ZM57.6573 13.5372H58.7107L58.1841 10.4348L57.6573 13.5372ZM61.0521 8.26905H62.3398V14.8835H63.8617V15.9371H61.0521V8.26905ZM63.6861 8.26905H67.1397V9.32268H66.0861V15.9371H64.7983V9.32268H63.7447V8.26905H63.6861ZM70.4177 12.6006H69.1884V15.9957H67.9007V8.32758H69.1884V11.6055H70.4177V8.32758H71.7054V15.9957H70.4177V12.6006Z" fill="#FFFFF1"/>
<path d="M26.6918 27.2342L28.1551 19.5662H29.6185L31.0819 27.2342H29.7356L29.5015 25.8295H28.1551L27.921 27.2342H26.6918ZM28.3308 24.8344H29.3844L28.8576 21.732L28.3308 24.8344ZM32.7209 22.4344V27.2928H31.6087V19.6247H32.8965L34.3013 24.0148V19.6247H35.3549V27.2928H34.2428L32.7209 22.4344ZM40.1548 21.6149V25.1855C40.1548 26.3562 39.6865 27.2342 38.2817 27.2342H36.2915V19.5662H38.2817C39.6865 19.5662 40.1548 20.4442 40.1548 21.6149ZM38.1061 26.1807C38.6329 26.1807 38.867 25.888 38.867 25.4197V21.3808C38.867 20.9125 38.6914 20.6199 38.1061 20.6199H37.5793V26.1807H38.1061ZM45.1303 22.493L44.4279 27.2342H43.1986L42.145 19.5662H43.3742L43.9596 24.4246L44.6035 19.5662H45.6571L46.3595 24.4246L46.9449 19.5662H48.057L47.0619 27.2342H45.8327L45.1303 22.493ZM48.7595 19.5662H51.8618V20.6199H50.0472V22.8441H51.335V23.8978H50.0472V26.2392H51.8618V27.2928H48.7595V19.5662ZM52.6813 19.5662H53.9691V26.1807H55.491V27.2342H52.6813V19.5662ZM56.1934 19.5662H57.4812V26.1807H59.0033V27.2342H56.1934V19.5662ZM58.8862 22.7271H60.7008V23.7807H58.8862V22.7271ZM61.4618 19.5662H63.3349C64.6227 19.5662 65.0324 20.1516 65.0324 21.2637V22.0247C65.0324 22.6686 64.7983 23.0783 64.2715 23.2539C64.9154 23.4295 65.208 23.8393 65.208 24.5417V25.5368C65.208 26.649 64.7397 27.2342 63.452 27.2342H61.4618V19.5662ZM62.7496 22.7856H63.2178C63.6276 22.7856 63.8032 22.5515 63.8032 22.1418V21.2052C63.8032 20.7955 63.6276 20.5613 63.1593 20.5613H62.691L62.7496 22.7856ZM62.7496 23.7807V26.1807H63.3349C63.7446 26.1807 63.9788 25.9465 63.9788 25.5368V24.3661C63.9788 23.9563 63.8032 23.7221 63.3349 23.7221H62.7496V23.7807ZM66.0275 19.5662H69.1299V20.6199H67.3153V22.8441H68.6031V23.8978H67.3153V26.2392H69.1299V27.2928H66.0275V19.5662ZM69.8908 19.5662H71.1786V27.2342H69.8908V19.5662ZM73.2273 22.4344V27.2928H72.1152V19.6247H73.4029L74.8078 24.0148V19.6247H75.8614V27.2928H74.7492L73.2273 22.4344ZM78.7296 23.1368H80.5442V27.2342H79.6076V26.4148C79.432 27.0002 79.0808 27.3514 78.3784 27.3514C77.2662 27.3514 76.7394 26.4734 76.7394 25.3027V21.5564C76.7394 20.3272 77.3248 19.5077 78.6711 19.5077C80.0759 19.5077 80.5442 20.3272 80.5442 21.4393V22.1418H79.3735V21.3808C79.3735 20.9125 79.1979 20.6199 78.7296 20.6199C78.2613 20.6199 78.0857 20.9711 78.0857 21.4393V25.5953C78.0857 26.0636 78.2613 26.4148 78.7296 26.4148C79.1394 26.4148 79.3735 26.1807 79.3735 25.6539V24.3075H78.7881V23.1368H78.7296Z" fill="#FFFFF1"/>
</svg>
