<svg width="95" height="95" viewBox="0 0 95 95" fill="none" xmlns="http://www.w3.org/2000/svg">
<path d="M14.8461 27.2929H17.8899V24.1906H19.1777V21.6736H17.8899V8.26904H14.7289L9.22672 22.2004V24.132H14.8461V27.2929ZM12.0364 21.6736L14.9046 13.8299V21.6736H12.0364Z" fill="#FFFFF1"/>
<path d="M41.4207 50.8825L24.5041 41.1072V72.716L41.4207 77.8086V50.8825ZM43.2353 50.941V77.8086L60.2688 72.6575V41.1072L43.2353 50.941ZM73.4977 40.3462C73.4977 39.234 72.6197 38.356 71.5075 38.356C70.3954 38.356 69.5173 39.234 69.5173 40.3462V42.512H73.4977V40.3462ZM69.5173 72.1307L71.5075 79.0964L73.4977 72.1307V44.0339H69.5173V72.1307Z" fill="#FFFFF1"/>
<path d="M63.898 42.512L62.0834 41.0486V73.5355L43.2937 79.6231H41.4206L22.6894 74.4135V41.0486L20.8748 42.512V75.6428L41.3035 81.3207H43.4108L62.2005 75.3501L63.898 74.8233V42.512Z" fill="#FFFFF1"/>
<path d="M27.021 19.5662H30.1233V20.6199H28.3087V22.8442H29.5965V23.8978H28.3087V26.2392H30.1233V27.2928H27.021V19.5662ZM34.7476 21.615V25.1856C34.7476 26.3563 34.2793 27.2343 32.8745 27.2343H30.8843V19.5662H32.8745C34.2793 19.5662 34.7476 20.4443 34.7476 21.615ZM32.6989 26.1807C33.2257 26.1807 33.4598 25.888 33.4598 25.4197V21.3808C33.4598 20.9125 33.2842 20.6199 32.6989 20.6199H32.172V26.1807H32.6989ZM39.3718 19.5662V25.3612C39.3718 26.5319 38.845 27.3514 37.5573 27.3514C36.211 27.3514 35.6256 26.5904 35.6256 25.3612V19.5662H36.9134V25.5368C36.9134 26.0051 37.089 26.2978 37.5573 26.2978C38.0255 26.2978 38.2011 26.0051 38.2011 25.5368V19.5662H39.3718ZM40.1913 25.2441V21.4979C40.1913 20.2686 40.7767 19.4492 42.123 19.4492C43.5278 19.4492 43.9376 20.2686 43.9376 21.3808V22.3174H42.7669V21.3223C42.7669 20.854 42.5913 20.5613 42.123 20.5613C41.6547 20.5613 41.4791 20.9125 41.4791 21.3808V25.5368C41.4791 26.0051 41.6547 26.3563 42.123 26.3563C42.5913 26.3563 42.7669 26.0636 42.7669 25.5953V24.1905H43.9376V25.5368C43.9376 26.649 43.4693 27.4685 42.123 27.4685C40.7767 27.3514 40.1913 26.4734 40.1913 25.2441ZM44.4059 27.2343L45.8692 19.5662H47.3326L48.796 27.2343H47.4497L47.2155 25.8295H45.8692L45.6351 27.2343H44.4059ZM45.9863 24.8344H47.0399L46.5131 21.732L45.9863 24.8344ZM48.6204 19.5662H52.0739V20.6199H51.0203V27.2343H49.7325V20.6199H48.6789V19.5662H48.6204ZM52.7764 19.5662H54.0641V27.2343H52.7764V19.5662ZM54.9421 25.2441V21.4979C54.9421 20.2686 55.5275 19.4492 56.8738 19.4492C58.2201 19.4492 58.864 20.3272 58.864 21.4979V25.2441C58.864 26.4148 58.2786 27.2928 56.8738 27.2928C55.5275 27.3514 54.9421 26.4734 54.9421 25.2441ZM57.5762 25.4783V21.3223C57.5762 20.854 57.4006 20.5028 56.9323 20.5028C56.4641 20.5028 56.2885 20.854 56.2885 21.3223V25.4783C56.2885 25.9465 56.4641 26.2978 56.9323 26.2978C57.3421 26.2392 57.5762 25.9465 57.5762 25.4783ZM60.7956 22.4344V27.2928H59.6835V19.6248H60.9712L62.3761 24.0149V19.6248H63.4297V27.2928H62.3176L60.7956 22.4344Z" fill="#FFFFF1"/>
<path d="M28.4843 16.4638V15.9371C27.4307 15.7615 27.021 15.0004 27.021 13.9468V10.2006C27.021 8.97134 27.6063 8.15186 28.9526 8.15186C30.2989 8.15186 30.9428 9.02988 30.9428 10.2006V13.9468C30.9428 14.7663 30.6501 15.4687 30.0062 15.7614L30.9428 15.9371V16.8736L28.4843 16.4638ZM29.655 14.2395V10.025C29.655 9.55669 29.4794 9.20554 29.0112 9.20554C28.5429 9.20554 28.3673 9.55669 28.3673 10.025V14.2395C28.3673 14.7078 28.5429 15.059 29.0112 15.059C29.4209 15.059 29.655 14.7078 29.655 14.2395ZM35.5085 8.26893V14.0639C35.5085 15.2346 34.9817 16.0541 33.694 16.0541C32.3476 16.0541 31.7623 15.2931 31.7623 14.0639V8.26893H33.0501V14.2395C33.0501 14.7078 33.2257 15.0004 33.694 15.0004C34.1622 15.0004 34.3378 14.7078 34.3378 14.2395V8.26893H35.5085ZM36.0354 15.9371L37.4987 8.26893H38.9621L40.4255 15.9371H39.0792L38.845 14.5322H37.4987L37.2646 15.9371H36.0354ZM37.6158 13.5371H38.6694L38.1426 10.4347L37.6158 13.5371ZM41.0108 8.26893H42.2986V14.8834H43.8205V15.9371H41.0108V8.26893ZM44.4644 8.26893H45.7522V15.9371H44.4644V8.26893ZM46.396 8.26893H49.8496V9.32256H48.796V15.9371H47.5082V9.32256H46.4546L46.396 8.26893ZM52.952 13.0103V15.9371H51.6642V13.0103L50.2008 8.26893H51.5471L52.3081 11.1957L53.069 8.26893H54.2983L52.952 13.0103Z" fill="#FFFFF1"/>
</svg>
