<svg width="95" height="95" viewBox="0 0 95 95" fill="none" xmlns="http://www.w3.org/2000/svg">
<path d="M15.1743 14.2981C13.8866 14.2981 13.0086 14.7664 12.4818 15.5859V10.8446H17.984V8.21051H9.55502V18.9224H12.4818V18.5127C12.4818 17.4005 13.0085 16.7566 13.8866 16.7566C14.8816 16.7566 15.2329 17.459 15.2329 18.4541V23.0199C15.2329 24.015 14.8816 24.7174 13.8866 24.7174C12.7744 24.7174 12.4232 24.015 12.4232 22.8443V20.4443H9.49643V22.6101C9.49643 25.4783 10.6671 27.3514 13.8866 27.3514C17.106 27.3514 18.4523 25.6539 18.4523 23.0199V18.5127C18.4523 15.4688 16.9304 14.2981 15.1743 14.2981Z" fill="#FFFFF1"/>
<path d="M68.7927 36.0146H57.0857C57.0272 36.0146 56.9101 36.0731 56.9101 36.1902V40.0535C56.9101 40.112 56.9686 40.2291 57.0857 40.2291H61.7685L56.6174 45.3802C53.9833 43.3315 50.7054 42.1022 47.1347 42.1022C38.7057 42.1022 31.7986 49.0094 31.7986 57.4384C31.7986 65.2235 37.6521 71.6624 45.1446 72.6575V77.1647H40.5203C40.4618 77.1647 40.3447 77.2232 40.3447 77.3403V81.4963C40.3447 81.5548 40.4032 81.6719 40.5203 81.6719H45.1446V86.062C45.1446 86.1205 45.2031 86.2376 45.3202 86.2376H49.4761C49.5347 86.2376 49.6518 86.1791 49.6518 86.062V81.6719H54.276C54.3346 81.6719 54.4516 81.6133 54.4516 81.4963V77.3403C54.4516 77.2817 54.3931 77.1647 54.276 77.1647H49.6518V72.5989C56.9101 71.4282 62.4709 65.1065 62.4709 57.4969C62.4709 54.219 61.4173 51.1751 59.6612 48.6581L64.7538 43.5656V47.8972C64.7538 47.9557 64.8123 48.0728 64.9294 48.0728H68.7927C68.8512 48.0728 68.9683 48.0143 68.9683 47.8972V36.1902C68.9683 36.0731 68.8512 36.0146 68.7927 36.0146ZM47.1347 68.7356C40.93 68.7356 35.8375 63.6431 35.8375 57.4384C35.8375 51.2337 40.8715 46.1411 47.1347 46.1411C53.3395 46.1411 58.432 51.1751 58.432 57.4384C58.432 63.6431 53.3395 68.7356 47.1347 68.7356Z" fill="#FFFFF1"/>
<path d="M54.1004 52.8141H40.4618C40.4033 52.8141 40.2862 52.8727 40.2862 52.9312V56.2677C40.2862 56.3262 40.3447 56.3848 40.4618 56.3848H54.159C54.2175 56.3848 54.3346 56.3262 54.3346 56.2677V52.9312C54.2761 52.8727 54.2175 52.8141 54.1004 52.8141ZM54.1004 58.7262H40.4618C40.4033 58.7262 40.2862 58.7847 40.2862 58.8433V62.1797C40.2862 62.2383 40.3447 62.2968 40.4618 62.2968H54.159C54.2175 62.2968 54.3346 62.2383 54.3346 62.1797V58.8433C54.2761 58.7847 54.2175 58.7262 54.1004 58.7262Z" fill="#FFFFF1"/>
<path d="M27.0569 19.5662H30.1593V20.6199H28.3447V22.8442H29.6325V23.8978H28.3447V26.2392H30.1593V27.2928H27.0569V19.5662ZM32.2081 27.7611V27.2343C31.1544 27.0587 30.7447 26.2978 30.7447 25.2441V21.4979C30.7447 20.2686 31.33 19.4492 32.6763 19.4492C34.0226 19.4492 34.6665 20.3272 34.6665 21.4979V25.2441C34.6665 26.0636 34.3738 26.766 33.7299 27.0587L34.6665 27.2343V28.1709L32.2081 27.7611ZM33.3788 25.5368V21.3223C33.3788 20.854 33.2031 20.5028 32.7348 20.5028C32.2665 20.5028 32.091 20.854 32.091 21.3223V25.5368C32.091 26.0051 32.2665 26.3563 32.7348 26.3563C33.2031 26.3563 33.3788 26.0051 33.3788 25.5368ZM39.2907 19.5662V25.3612C39.2907 26.5319 38.764 27.3514 37.4762 27.3514C36.1299 27.3514 35.5445 26.5904 35.5445 25.3612V19.5662H36.8323V25.5368C36.8323 26.0051 37.0079 26.2978 37.4762 26.2978C37.9445 26.2978 38.12 26.0051 38.12 25.5368V19.5662H39.2907ZM39.9346 27.2343L41.398 19.5662H42.8614L44.3247 27.2343H42.9784L42.7444 25.8295H41.398L41.1639 27.2343H39.9346ZM41.5737 24.8344H42.6273L42.1004 21.732L41.5737 24.8344ZM44.9687 19.5662H46.2565V26.1807H47.7783V27.2343H44.9687V19.5662ZM48.4808 19.5662H49.7685V27.2343H48.4808V19.5662ZM50.4709 19.5662H53.9245V20.6199H52.8709V27.2343H51.5831V20.6199H50.5295V19.5662H50.4709ZM57.1439 24.3076V27.2343H55.8561V24.3076L54.3928 19.5662H55.7391L56.5001 22.493L57.261 19.5662H58.4902L57.1439 24.3076Z" fill="#FFFFF1"/>
<path d="M29.0471 11.8397H30.8617V15.9371H29.9251V15.1176C29.7495 15.703 29.3984 16.0542 28.696 16.0542C27.5838 16.0542 27.0569 15.1762 27.0569 14.0055V10.2592C27.0569 9.03 27.6423 8.21051 28.9886 8.21051C30.3935 8.21051 30.8617 9.03 30.8617 10.1422V10.8446H29.691V10.0836C29.691 9.61535 29.5154 9.32268 29.0471 9.32268C28.5788 9.32268 28.4033 9.67389 28.4033 10.1422V14.2981C28.4033 14.7664 28.5788 15.1176 29.0471 15.1176C29.4569 15.1176 29.691 14.8835 29.691 14.3567V13.0104H29.1056V11.8397H29.0471ZM31.7397 8.26905H34.8421V9.32268H33.0275V11.547H34.3153V12.6006H33.0275V14.942H34.8421V15.9957H31.7397V8.26905ZM36.7152 11.1373V15.9957H35.6031V8.32758H36.8909L38.2956 12.7177V8.32758H39.3493V15.9957H38.2372L36.7152 11.1373ZM44.0907 10.3178V13.8884C44.0907 15.0591 43.6223 15.9371 42.2175 15.9371H40.2273V8.26905H42.2175C43.6223 8.26905 44.0907 9.14707 44.0907 10.3178ZM42.0419 14.8835C42.5687 14.8835 42.8028 14.5908 42.8028 14.1225V10.0836C42.8028 9.61535 42.6273 9.32268 42.0419 9.32268H41.5151V14.8835H42.0419ZM44.9687 8.26905H48.071V9.32268H46.2564V11.547H47.5442V12.6006H46.2564V14.942H48.071V15.9957H44.9687V8.26905ZM50.1197 12.425V15.9371H48.8319V8.26905H50.705C51.9928 8.26905 52.4611 8.91293 52.4611 9.96656V10.9617C52.4611 11.7811 52.1684 12.2494 51.4075 12.425L52.6367 15.9371H51.2904L50.1197 12.425ZM50.1197 9.32268V11.7226H50.5295C50.9977 11.7226 51.1733 11.4885 51.1733 11.0787V9.96656C51.1733 9.55681 50.9977 9.32268 50.5295 9.32268H50.1197Z" fill="#FFFFF1"/>
</svg>
