<svg width="95" height="95" viewBox="0 0 95 95" fill="none" xmlns="http://www.w3.org/2000/svg">
<path d="M9.94284 10.8446H14.8598L10.5867 27.2344H13.7476L17.9621 11.1958V8.26904H9.94284V10.8446Z" fill="#FFFFF1"/>
<path d="M26.9768 15.9371L28.4402 8.26898H29.9036L31.367 15.9371H30.0207L29.7865 14.5322H28.4402L28.2061 15.9371H26.9768ZM28.6158 13.4786H29.6694L29.1426 10.3762L28.6158 13.4786ZM31.8352 8.26898H34.8791V9.32256H33.123V11.5469H34.4108V12.6006H33.123V15.9955H31.8352V8.26898ZM35.4059 8.26898H38.4497V9.32256H36.6936V11.5469H37.9814V12.6006H36.6936V15.9955H35.4059V8.26898ZM38.8009 13.9468V10.2006C38.8009 8.97134 39.3863 8.15186 40.7326 8.15186C42.0789 8.15186 42.7227 9.02988 42.7227 10.2006V13.9468C42.7227 15.1175 42.1374 15.9955 40.7326 15.9955C39.3863 16.0541 38.8009 15.1175 38.8009 13.9468ZM41.435 14.181V10.025C41.435 9.55675 41.2594 9.20554 40.7911 9.20554C40.3228 9.20554 40.1472 9.55675 40.1472 10.025V14.181C40.1472 14.6493 40.3228 15.0005 40.7911 15.0005C41.2594 14.942 41.435 14.6493 41.435 14.181ZM44.7129 12.425V15.9371H43.4252V8.26898H45.2983C46.5861 8.26898 47.0543 8.91287 47.0543 9.9665V10.9616C47.0543 11.7811 46.7617 12.2494 46.0007 12.425L47.2299 15.9371H45.8836L44.7129 12.425ZM44.7129 9.32256V11.7225H45.1227C45.591 11.7225 45.7666 11.4883 45.7666 11.0786V9.9665C45.7666 9.55675 45.591 9.32256 45.1227 9.32256H44.7129ZM51.6201 10.3177V13.8883C51.6201 15.059 51.1518 15.9371 49.7469 15.9371H47.7568V8.26898H49.7469C51.0933 8.26898 51.6201 9.14701 51.6201 10.3177ZM49.5713 14.8834C50.0982 14.8834 50.3323 14.5908 50.3323 14.1225V10.0836C50.3323 9.61529 50.1567 9.32256 49.5713 9.32256H49.0445V14.8834H49.5713ZM51.9127 15.9371L53.3761 8.26898H54.8395L56.3029 15.9371H54.9566L54.7224 14.5322H53.3761L53.142 15.9371H51.9127ZM53.5517 13.4786H54.6053L54.0785 10.3762L53.5517 13.4786ZM56.7711 8.26898H58.6443C59.9323 8.26898 60.342 8.85433 60.342 9.9665V10.7274C60.342 11.3713 60.1079 11.781 59.5811 11.9566C60.2249 12.1322 60.5176 12.542 60.5176 13.2445V14.2395C60.5176 15.3517 60.0493 15.9371 58.7613 15.9371H56.7711V8.26898ZM58.0589 11.4884H58.5272C58.9372 11.4884 59.1128 11.2543 59.1128 10.8445V9.9079C59.1128 9.49816 58.9372 9.26402 58.4687 9.26402H58.0004V11.4884H58.0589ZM58.0589 12.4834V14.8834H58.6443C59.0542 14.8834 59.2884 14.6492 59.2884 14.2395V13.0688C59.2884 12.659 59.1128 12.425 58.6443 12.425H58.0589V12.4834ZM61.1615 8.26898H62.4493V14.8834H63.9712V15.9371H61.1615V8.26898ZM64.5565 8.26898H67.6589V9.32256H65.8443V11.5469H67.1321V12.6006H65.8443V14.942H67.6589V15.9955H64.5565V8.26898ZM69.1808 15.9371L70.6442 8.26898H72.1075L73.5709 15.9371H72.2246L71.9905 14.5322H70.6442L70.41 15.9371H69.1808ZM70.8198 13.4786H71.8734L71.3466 10.3762L70.8198 13.4786ZM75.1514 11.0786V15.9371H74.0392V8.26898H75.327L76.7318 12.6591V8.26898H77.7854V15.9371H76.6733L75.1514 11.0786ZM82.3512 10.3177V13.8883C82.3512 15.059 81.8829 15.9371 80.478 15.9371H78.4879V8.26898H80.478C81.8829 8.26898 82.3512 9.14701 82.3512 10.3177ZM80.361 14.8834C80.8878 14.8834 81.1219 14.5908 81.1219 14.1225V10.0836C81.1219 9.61529 80.9463 9.32256 80.361 9.32256H79.8342V14.8834H80.361Z" fill="#FFFFF1"/>
<path d="M27.1523 25.2441V21.5564C27.1523 20.3857 27.7377 19.5077 29.084 19.5077C30.4888 19.5077 30.8986 20.3272 30.8986 21.4393V22.3174H29.7279V21.3223C29.7279 20.854 29.5523 20.5613 29.084 20.5613C28.6157 20.5613 28.4401 20.9125 28.4401 21.3808V25.4783C28.4401 25.9465 28.6157 26.2977 29.084 26.2977C29.5523 26.2977 29.7279 26.0051 29.7279 25.5368V24.132H30.8986V25.4783C30.8986 26.5904 30.4303 27.4099 29.084 27.4099C27.7377 27.3514 27.1523 26.4734 27.1523 25.2441ZM31.7181 19.5662H33.0058V26.1807H34.5278V27.2343H31.7181V19.5662ZM35.2302 19.5662H38.274V20.6199H36.5179V22.7856H37.8057V23.8393H36.5179V26.1807H38.274V27.2343H35.2302V19.5662ZM38.9179 27.2343L40.3812 19.5662H41.8446L43.308 27.2343H41.9617L41.7276 25.8295H40.3812L40.1471 27.2343H38.9179ZM40.5569 24.8344H41.6105L41.0837 21.732L40.5569 24.8344ZM45.0055 22.4344V27.2343H43.8933V19.5662H45.1811L46.586 23.9563V19.5662H47.6396V27.2343H46.5274L45.0055 22.4344ZM51.0932 19.5662H54.137V20.6199H52.3809V22.7856H53.6687V23.8393H52.3809V26.1807H54.137V27.2343H51.0932V19.5662ZM56.0101 22.4344V27.2343H54.8979V19.5662H56.1857L57.5905 23.9563V19.5662H58.6442V27.2343H57.532L56.0101 22.4344ZM59.522 19.5662H62.5658V20.6199H60.8097V22.7856H62.0975V23.8393H60.8097V26.1807H62.5658V27.2343H59.522V19.5662ZM64.673 23.7222V27.2343H63.3853V19.5662H65.2584C66.5462 19.5662 67.0144 20.2101 67.0144 21.2637V22.2588C67.0144 23.0783 66.7218 23.5466 65.9608 23.7222L67.19 27.1758H65.8437L64.673 23.7222ZM64.673 20.6199V23.0198H65.0828C65.5511 23.0198 65.7267 22.7856 65.7267 22.3759V21.2637C65.7267 20.854 65.5511 20.6199 65.0828 20.6199H64.673ZM69.7656 23.1369H71.5802V27.2343H70.6436V26.4148C70.468 27.0002 70.1168 27.3514 69.4144 27.3514C68.3022 27.3514 67.7754 26.4734 67.7754 25.3027V21.6149C67.7754 20.4442 68.3607 19.5662 69.707 19.5662C71.1119 19.5662 71.5216 20.3857 71.5216 21.4979V22.2003H70.3509V21.4393C70.3509 20.9711 70.1753 20.6784 69.707 20.6784C69.2388 20.6784 69.0632 21.0296 69.0632 21.4979V25.5953C69.0632 26.0636 69.2388 26.4148 69.707 26.4148C70.1168 26.4148 70.3509 26.1807 70.3509 25.6539V24.3076H69.7656V23.1369ZM74.9167 24.3076V27.2343H73.6289V24.3076L72.1655 19.5662H73.5118L74.2728 22.493L75.0337 19.5662H76.263L74.9167 24.3076Z" fill="#FFFFF1"/>
<path d="M47.464 83.7206C48.1079 83.7206 48.5762 83.1938 48.5762 82.667V76.6379C48.5762 76.1111 48.0494 75.5842 47.464 75.5842C46.8201 75.5842 46.3518 76.1696 46.3518 76.6379V82.667C46.3518 83.1353 46.8787 83.7206 47.464 83.7206ZM47.3469 46.0241C39.7374 46.0241 33.5327 52.2288 33.5327 59.8383C33.5327 67.4479 39.7374 73.6526 47.3469 73.6526C54.9565 73.6526 61.161 67.4479 61.161 59.8383C61.161 52.1703 55.015 46.0241 47.3469 46.0241ZM46.3518 51.4678C46.3518 50.9996 46.8201 50.5313 47.4055 50.5313C47.9908 50.5313 48.4006 51.0581 48.4006 51.4678V56.2092C48.4006 56.6774 47.9323 57.1457 47.4055 57.1457C46.8201 57.1457 46.3518 56.6189 46.3518 56.2092V51.4678ZM47.3469 66.8625C43.3666 66.8625 40.1471 63.6431 40.1471 59.6627C40.1471 56.4433 42.2544 53.6922 45.1811 52.8141V55.5067C43.6592 56.2677 42.6056 57.8482 42.6056 59.6627C42.6056 62.2383 44.7129 64.3455 47.2884 64.3455C49.8639 64.3455 51.9712 62.2383 51.9712 59.6627C51.9712 57.8482 50.9176 56.2677 49.3957 55.4482V52.7556C52.3224 53.6336 54.4297 56.3848 54.4297 59.6042C54.5467 63.6431 51.3273 66.8625 47.3469 66.8625ZM31.5425 59.6627C31.5425 59.0188 31.0157 58.5506 30.4889 58.5506H24.4012C23.8744 58.5506 23.3476 59.0774 23.3476 59.6627C23.3476 60.3066 23.9329 60.7749 24.4012 60.7749H30.4303C30.9571 60.8334 31.5425 60.3066 31.5425 59.6627ZM71.4046 59.6627C71.4046 59.0188 70.8778 58.5506 70.351 58.5506H64.3219C63.795 58.5506 63.2682 59.0774 63.2682 59.6627C63.2682 60.3066 63.8536 60.7749 64.3219 60.7749H70.351C70.8192 60.8334 71.4046 60.3066 71.4046 59.6627ZM47.3469 43.8583C47.9908 43.8583 48.4591 43.3315 48.4591 42.8047V36.7756C48.4591 36.2487 47.9323 35.7219 47.3469 35.7219C46.7031 35.7219 46.2348 36.3073 46.2348 36.7756V42.7461C46.2348 43.2729 46.7616 43.8583 47.3469 43.8583ZM33.5912 51.819C33.8839 51.2922 33.6498 50.5313 33.24 50.2971L27.9719 47.3118C27.5036 47.0777 26.8012 47.1948 26.5085 47.7801C26.2158 48.3069 26.4499 49.0679 26.8597 49.302L32.1278 52.2873C32.5376 52.5215 33.2985 52.3459 33.5912 51.819ZM68.2437 71.6039C68.5364 71.0771 68.3022 70.3161 67.8925 70.082L62.6243 67.0967C62.1561 66.8625 61.4536 66.9796 61.161 67.565C60.8683 68.0918 61.1024 68.8527 61.5122 69.0869L66.7803 72.0721C67.1901 72.3063 67.8925 72.1892 68.2437 71.6039ZM55.2492 45.907C55.776 46.1997 56.4784 45.9655 56.7711 45.5558L59.7561 40.2877C59.9903 39.8194 59.8732 39.117 59.2878 38.8243C58.7613 38.5316 58.0003 38.7657 57.7662 39.1755L54.7809 44.4436C54.5467 44.9119 54.7223 45.6143 55.2492 45.907ZM35.4058 80.5597C35.9326 80.8524 36.635 80.6183 36.9277 80.2085L39.913 74.9404C40.1471 74.4721 40.0301 73.7697 39.4447 73.477C38.9179 73.1843 38.1569 73.4185 37.9228 73.8282L34.9375 79.0963C34.7034 79.5061 34.879 80.2085 35.4058 80.5597ZM39.4447 45.9655C39.9715 45.6729 40.1471 44.9119 39.913 44.5022L36.9277 39.234C36.6936 38.7657 35.9326 38.5316 35.4058 38.8828C34.879 39.1755 34.7034 39.9364 34.9375 40.4047L37.9228 45.6729C38.2155 46.0241 38.9179 46.2582 39.4447 45.9655ZM59.3464 80.5012C59.8732 80.2085 60.0488 79.4476 59.8147 79.0378L56.8296 73.7697C56.5955 73.3014 55.8345 73.0672 55.3077 73.4185C54.7809 73.7111 54.6053 74.4721 54.8394 74.9404L57.8247 80.2085C58.0588 80.6183 58.8196 80.8524 59.3464 80.5012ZM61.1024 51.7605C61.3951 52.2873 62.1561 52.4629 62.5658 52.2288L67.834 49.2435C68.3022 49.0094 68.5364 48.2484 68.1852 47.7216C67.8925 47.1948 67.1315 47.0192 66.6633 47.2533L61.3951 50.2386C61.0439 50.5313 60.8098 51.2337 61.1024 51.7605ZM26.567 71.6624C26.8597 72.1892 27.6206 72.3648 28.0304 72.1307L33.2985 69.1454C33.7668 68.9113 34.001 68.1503 33.6498 67.6235C33.3571 67.0967 32.5961 66.9211 32.1278 67.1552L26.8597 70.1405C26.4499 70.3746 26.2158 71.1356 26.567 71.6624Z" fill="#FFFFF1"/>
</svg>
