<svg width="95" height="95" viewBox="0 0 95 95" fill="none" xmlns="http://www.w3.org/2000/svg">
<path d="M18.7011 22.6101V20.5028C18.7011 18.6882 18.0572 17.3419 16.5939 16.698C17.8816 16.0541 18.467 14.942 18.467 13.4201V12.6591C18.467 9.67383 16.9451 8.09338 13.9598 8.09338C11.033 8.09338 9.51112 9.67383 9.51112 12.6591V13.4201C9.51112 14.942 10.0965 16.1127 11.3257 16.698C9.86233 17.3419 9.21844 18.6882 9.21844 20.5028V22.5515C9.21844 25.4197 10.5647 27.4685 13.9598 27.4685C17.2963 27.527 18.7011 25.4783 18.7011 22.6101ZM12.4964 12.425C12.4964 11.2543 12.9061 10.6104 13.9012 10.6104C14.9549 10.6104 15.3646 11.2543 15.3646 12.425V13.7127C15.3646 14.8834 14.9549 15.5273 13.9012 15.5273C12.8476 15.5273 12.4964 14.8249 12.4964 13.7127V12.425ZM15.4817 22.9613C15.4817 24.132 15.0719 24.9515 13.9012 24.9515C12.7891 24.9515 12.3793 24.132 12.3793 22.9613V19.8589C12.3793 18.6882 12.7891 17.9273 13.9012 17.9273C15.0719 17.9273 15.4817 18.7467 15.4817 19.8589V22.9613Z" fill="#FFFFF1"/>
<path d="M65.7635 46.7265L56.1636 55.858C55.8124 56.2092 55.6368 56.5019 55.6368 57.2043V82.7255C55.6368 83.0182 55.8709 83.2523 56.1636 83.2523H66.0562C66.3488 83.2523 66.583 83.0182 66.583 82.7255V46.9607C66.6415 46.6095 66.4074 46.0827 65.7635 46.7265ZM38.1934 58.5506L28.5936 67.682C28.2424 68.0332 28.0668 68.3259 28.0668 69.0283V82.667C28.0668 82.9596 28.301 83.1938 28.5936 83.1938H38.4861C38.7787 83.1938 39.0129 82.9596 39.0129 82.667V58.7847C39.0714 58.4921 38.8373 57.9653 38.1934 58.5506Z" fill="#FFFFF1"/>
<path d="M70.153 35.6634C70.153 35.6049 70.153 35.4879 70.0945 35.4293C70.0359 35.3708 69.9774 35.3707 69.9189 35.3707H69.8018L62.4849 37.0098H62.3679C62.3093 37.0098 62.2508 37.0682 62.2508 37.0682C62.1337 37.1853 62.1337 37.361 62.2508 37.478L62.3093 37.5366L64.0068 39.2341L47.3831 55.858L39.7151 48.1899C39.6565 48.1314 39.4809 48.1314 39.4224 48.1899L37.3151 50.2972L25.0228 62.5895C24.9642 62.648 24.9642 62.8236 25.0228 62.8822L27.13 64.9894C27.1886 65.048 27.3642 65.048 27.4227 64.9894L39.598 52.8727L45.1588 58.4335L47.2661 60.5408C47.3246 60.5993 47.5002 60.5993 47.5588 60.5408L66.4068 41.6926L68.1628 43.4486C68.2799 43.5657 68.4555 43.5657 68.5726 43.4486C68.6311 43.3901 68.6311 43.3315 68.6311 43.273L70.2701 35.7805L70.153 35.6634Z" fill="#FFFFF1"/>
<path d="M52.066 60.1895L47.4417 64.8723C47.3247 64.9308 47.2076 64.9308 47.1491 64.8723L42.9345 60.5993C42.1736 59.8383 41.998 60.4822 41.998 60.7749V82.784C41.998 83.0767 42.2321 83.3108 42.5248 83.3108H52.4172C52.7099 83.3108 52.944 83.0767 52.944 82.784V60.4237C52.944 60.0139 52.7099 59.4871 52.066 60.1895Z" fill="#FFFFF1"/>
<path d="M29.5888 10.3177V13.8883C29.5888 15.059 29.1205 15.9371 27.7157 15.9371H25.7255V8.26898H27.7157C29.1205 8.26898 29.5888 9.14701 29.5888 10.3177ZM27.54 14.8834C28.0669 14.8834 28.301 14.5908 28.301 14.1225V10.0836C28.301 9.61529 28.1254 9.32256 27.54 9.32256H27.0132V14.8834H27.54ZM30.4083 8.26898H33.5106V9.32256H31.696V11.5469H32.9838V12.6006H31.696V14.942H33.5106V15.9955H30.4083V8.26898ZM34.1545 13.9468V10.2006C34.1545 8.97134 34.7399 8.15186 36.0862 8.15186C37.491 8.15186 37.9007 8.9714 37.9007 10.0836V11.0201H36.73V9.9665C36.73 9.49822 36.5544 9.20554 36.0862 9.20554C35.6179 9.20554 35.4423 9.55675 35.4423 10.025V14.181C35.4423 14.6493 35.6179 15.0005 36.0862 15.0005C36.5544 15.0005 36.73 14.7078 36.73 14.2395V12.8347H37.9007V14.181C37.9007 15.2932 37.4325 16.1127 36.0862 16.1127C34.7399 16.0541 34.1545 15.1175 34.1545 13.9468ZM38.7202 8.26898H41.8226V9.32256H40.008V11.5469H41.2958V12.6006H40.008V14.942H41.8226V15.9955H38.7202V8.26898ZM43.6372 11.0786V15.9371H42.525V8.26898H43.8128L45.2176 12.6591V8.26898H46.2712V15.9371H45.1591L43.6372 11.0786ZM46.9737 8.26898H50.4272V9.32256H49.3736V15.9371H48.0858V9.32256H47.0322V8.26898H46.9737ZM55.1686 11.1957L54.4661 15.9371H53.2369L52.1833 8.26898H53.4125L53.9979 13.1273L54.6417 8.26898H55.6954L56.3978 13.1273L56.9831 8.26898H58.0953L57.1002 15.9371H55.9295L55.1686 11.1957ZM58.6221 13.9468V10.2006C58.6221 8.97134 59.2076 8.15186 60.5539 8.15186C61.9002 8.15186 62.5441 9.02988 62.5441 10.2006V13.9468C62.5441 15.1175 61.9587 15.9955 60.5539 15.9955C59.2076 16.0541 58.6221 15.1175 58.6221 13.9468ZM61.1978 14.181V10.025C61.1978 9.55675 61.0222 9.20554 60.5539 9.20554C60.0856 9.20554 59.91 9.55675 59.91 10.025V14.181C59.91 14.6493 60.0856 15.0005 60.5539 15.0005C61.0222 14.942 61.1978 14.6493 61.1978 14.181ZM64.6513 12.425V15.9371H63.3636V8.26898H65.2367C66.5245 8.26898 66.9927 8.91287 66.9927 9.9665V10.9616C66.9927 11.7811 66.7001 12.2494 65.9391 12.425L67.1684 15.9371H65.822L64.6513 12.425ZM64.6513 9.32256V11.7225H65.0611C65.5294 11.7225 65.705 11.4883 65.705 11.0786V9.9665C65.705 9.55675 65.5294 9.32256 65.0611 9.32256H64.6513ZM69.1 12.1908V15.9371H67.8122V8.26898H69.1V11.664L70.5048 8.26898H71.7926L70.2707 11.7225L71.7926 15.9371H70.4463L69.1 12.1908ZM73.6072 15.9371L75.0706 8.26898H76.534L77.9973 15.9371H76.651L76.4169 14.5322H75.0706L74.8364 15.9371H73.6072ZM75.2462 13.4786H76.2998L75.773 10.3762L75.2462 13.4786ZM79.5192 11.0786V15.9371H78.4071V8.26898H79.6948L81.0997 12.6591V8.26898H82.1533V15.9371H81.0411L79.5192 11.0786ZM86.8946 10.3177V13.8883C86.8946 15.059 86.4264 15.9371 85.0215 15.9371H83.0313V8.26898H85.0215C86.4264 8.26898 86.8946 9.14701 86.8946 10.3177ZM84.8459 14.8834C85.3727 14.8834 85.6069 14.5908 85.6069 14.1225V10.0836C85.6069 9.61529 85.4313 9.32256 84.8459 9.32256H84.3191V14.8834H84.8459Z" fill="#FFFFF1"/>
<path d="M25.7255 19.5662H28.8278V20.6199H27.0132V22.8442H28.301V23.8978H27.0132V26.2392H28.8278V27.2928H25.7255V19.5662ZM29.3546 25.2441V21.4979C29.3546 20.2686 29.94 19.4492 31.2863 19.4492C32.6911 19.4492 33.1009 20.2686 33.1009 21.3808V22.3174H31.9302V21.3223C31.9302 20.854 31.7546 20.5613 31.2863 20.5613C30.818 20.5613 30.6424 20.9125 30.6424 21.3808V25.5368C30.6424 26.0051 30.818 26.3563 31.2863 26.3563C31.7546 26.3563 31.9302 26.0636 31.9302 25.5953V24.1905H33.1009V25.5368C33.1009 26.649 32.6326 27.4684 31.2863 27.4684C29.94 27.3514 29.3546 26.4734 29.3546 25.2441ZM33.8033 25.2441V21.4979C33.8033 20.2686 34.3886 19.4492 35.7349 19.4492C37.0812 19.4492 37.7251 20.3272 37.7251 21.4979V25.2441C37.7251 26.4148 37.1398 27.2928 35.7349 27.2928C34.4472 27.3514 33.8033 26.4734 33.8033 25.2441ZM36.4374 25.4783V21.3223C36.4374 20.854 36.2618 20.5028 35.7935 20.5028C35.3252 20.5028 35.1496 20.854 35.1496 21.3223V25.4783C35.1496 25.9465 35.3252 26.2977 35.7935 26.2977C36.2618 26.2392 36.4374 25.9465 36.4374 25.4783ZM39.5983 22.4344V27.2928H38.4861V19.6248H39.7739L41.1787 24.0149V19.6248H42.2323V27.2928H41.1202L39.5983 22.4344ZM42.9933 25.2441V21.4979C42.9933 20.2686 43.5786 19.4492 44.9249 19.4492C46.2712 19.4492 46.9151 20.3272 46.9151 21.4979V25.2441C46.9151 26.4148 46.3298 27.2928 44.9249 27.2928C43.5786 27.3514 42.9933 26.4734 42.9933 25.2441ZM45.5688 25.4783V21.3223C45.5688 20.854 45.3932 20.5028 44.9249 20.5028C44.4567 20.5028 44.2811 20.854 44.2811 21.3223V25.4783C44.2811 25.9465 44.4567 26.2977 44.9249 26.2977C45.3932 26.2392 45.5688 25.9465 45.5688 25.4783ZM51.1882 22.2588L50.2516 27.2343H49.6663L48.7297 22.2588V27.2343H47.6761V19.5662H49.198L50.0175 23.8978L50.7784 19.5662H52.4174V27.2343H51.2467L51.1882 22.2588ZM53.1198 19.5662H54.4076V27.2343H53.1198V19.5662ZM55.11 25.2441V21.4979C55.11 20.2686 55.6954 19.4492 57.0417 19.4492C58.4465 19.4492 58.8563 20.2686 58.8563 21.3808V22.3174H57.6856V21.3223C57.6856 20.854 57.51 20.5613 57.0417 20.5613C56.5734 20.5613 56.3978 20.9125 56.3978 21.3808V25.5368C56.3978 26.0051 56.5734 26.3563 57.0417 26.3563C57.51 26.3563 57.6856 26.0636 57.6856 25.5953V24.1905H58.8563V25.5368C58.8563 26.649 58.388 27.4684 57.0417 27.4684C55.6954 27.3514 55.11 26.4734 55.11 25.2441ZM63.0709 23.1369H64.8855V27.2343H63.9489V26.4148C63.7733 27.0002 63.4221 27.3514 62.7197 27.3514C61.6075 27.3514 61.0807 26.4734 61.0807 25.3027V21.5564C61.0807 20.3272 61.6661 19.5077 63.0124 19.5077C64.4172 19.5077 64.8855 20.3272 64.8855 21.4393V22.1418H63.7148V21.3808C63.7148 20.9125 63.5392 20.6199 63.0709 20.6199C62.6026 20.6199 62.427 20.9711 62.427 21.4393V25.5953C62.427 26.0636 62.6026 26.4148 63.0709 26.4148C63.4806 26.4148 63.7148 26.1807 63.7148 25.6539V24.3076H63.1294V23.1369H63.0709ZM67.0513 23.7222V27.2343H65.7635V19.5662H67.6366C68.9244 19.5662 69.3927 20.2101 69.3927 21.2637V22.2588C69.3927 23.0783 69.1 23.5466 68.339 23.7222L69.5683 27.2343H68.222L67.0513 23.7222ZM67.0513 20.6199V23.0198H67.461C67.9293 23.0198 68.1049 22.7857 68.1049 22.3759V21.2637C68.1049 20.854 67.9293 20.6199 67.461 20.6199H67.0513ZM69.978 25.2441V21.4979C69.978 20.2686 70.5634 19.4492 71.9097 19.4492C73.256 19.4492 73.8999 20.3272 73.8999 21.4979V25.2441C73.8999 26.4148 73.3145 27.2928 71.9097 27.2928C70.5634 27.3514 69.978 26.4734 69.978 25.2441ZM72.6121 25.4783V21.3223C72.6121 20.854 72.4365 20.5028 71.9682 20.5028C71.4999 20.5028 71.3243 20.854 71.3243 21.3223V25.4783C71.3243 25.9465 71.4999 26.2977 71.9682 26.2977C72.4365 26.2392 72.6121 25.9465 72.6121 25.4783ZM77.2364 22.493L76.5339 27.2343H75.3047L74.2511 19.5662H75.4803L76.0657 24.4246L76.7096 19.5662H77.7632L78.4656 24.4246L79.0509 19.5662H80.1631L79.168 27.2343H77.9388L77.2364 22.493ZM80.6314 19.5662H84.085V20.6199H83.0313V27.2343H81.685V20.6199H80.6314V19.5662ZM87.0117 23.8393H85.7825V27.2343H84.4947V19.5662H85.7825V22.8442H87.0117V19.5662H88.2995V27.2343H87.0117V23.8393Z" fill="#FFFFF1"/>
</svg>
