<svg width="95" height="95" viewBox="0 0 95 95" fill="none" xmlns="http://www.w3.org/2000/svg">
<path d="M17.7422 13.0104C17.7422 10.0836 16.4545 7.91785 13.118 7.91785C9.72295 7.91785 8.43518 9.79097 8.43518 12.7177V15.5274C8.43518 18.6297 9.66441 20.2102 11.9473 20.2102C13.2936 20.2102 14.1131 19.5663 14.5814 18.6883V22.7857C14.5814 23.9564 14.1131 24.7174 13.0009 24.7174C11.8302 24.7174 11.4205 24.0735 11.4205 22.8443V21.5565H8.49372V22.5516C8.49372 25.3613 9.48881 27.2929 13.0594 27.2929C16.3959 27.2929 17.7422 25.1271 17.7422 22.1418V13.0104ZM14.5814 15.9371C14.5228 16.9908 14.0545 17.6932 13.0594 17.6932C11.9473 17.6932 11.5375 17.0493 11.5375 15.7615V12.4836C11.5375 11.2543 12.0058 10.5519 13.0594 10.5519C14.1131 10.5519 14.5228 11.2543 14.5228 12.4836V15.9371H14.5814ZM71.1264 62.2968L59.9462 55.858V42.9218C59.9462 42.6291 59.8291 42.395 59.5365 42.2779L47.9463 35.6049C47.7122 35.4878 47.4195 35.4878 47.1853 35.6049L35.5954 42.2779C35.3613 42.395 35.1857 42.6876 35.1857 42.9218V55.858L24.0055 62.2968C23.7713 62.4139 23.5957 62.7066 23.5957 62.9407V76.2867C23.5957 76.5794 23.7128 76.8135 24.0055 76.9306L35.5954 83.6036C35.7125 83.6621 35.8296 83.7206 36.0052 83.7206C36.1222 83.7206 36.2978 83.6621 36.4149 83.6036L47.595 77.1647L58.7753 83.6036C58.8923 83.6621 59.0096 83.7206 59.1852 83.7206C59.3609 83.7206 59.4779 83.6621 59.595 83.6036L71.1849 76.9306C71.4191 76.8135 71.5947 76.5209 71.5947 76.2867V62.9407C71.4776 62.6481 71.3605 62.4139 71.1264 62.2968ZM46.7756 74.9989L37.4685 69.6137L46.7756 64.2285V74.9989ZM57.6046 56.2677L48.2975 61.653V50.9411L57.6046 56.2677ZM46.7756 61.5944L37.4685 56.2092L46.7756 50.824V61.5944ZM49.117 62.9407L59.1852 57.1458L69.2533 62.9407L59.1852 68.7357L49.117 62.9407ZM58.3655 54.9214L49.0584 49.5362L58.3655 44.151V54.9214ZM46.0146 49.5948L36.7076 54.98V44.2681L46.0146 49.5948ZM35.2442 81.6719L25.1762 75.877V64.287L35.2442 70.082V81.6719ZM36.7661 81.6719V70.96L46.0732 76.3452L36.7661 81.6719ZM69.9557 75.877L59.8877 81.6719V70.082L69.9557 64.287V75.877Z" fill="#FFFFF1"/>
<path d="M22.7174 8.38611H23.9466V15.5274H22.7174V8.38611ZM25.6442 11.0787V15.586H24.6491V8.44465H25.8198L27.1075 12.5421V8.44465H28.1026V15.586H27.049L25.6442 11.0787ZM32.4342 10.3178V13.6543C32.4342 14.7664 31.9659 15.586 30.6782 15.586H28.805V8.44465H30.6782C32.0245 8.38611 32.4342 9.20566 32.4342 10.3178ZM30.5611 14.5908C31.0294 14.5908 31.2635 14.2981 31.2635 13.8884V10.1422C31.2635 9.73242 31.0879 9.4398 30.5611 9.4398H30.0343V14.6494L30.5611 14.5908ZM36.7073 8.38611V13.7714C36.7073 14.8836 36.239 15.586 35.0098 15.586C33.722 15.586 33.1952 14.8836 33.1952 13.7714V8.38611H34.4244V13.8884C34.4244 14.2981 34.6 14.5908 35.0098 14.5908C35.4195 14.5908 35.5951 14.2981 35.5951 13.8884V8.38611H36.7073ZM37.3512 14.0055V13.0689H38.4633V14.0641C38.4633 14.4738 38.6389 14.7079 39.0487 14.7079C39.3999 14.7079 39.5755 14.4738 39.5755 14.0641V13.7714C39.5755 13.3616 39.3999 13.1274 39.0487 12.7762L38.3462 12.0739C37.6438 11.3715 37.3512 10.9617 37.3512 10.1422V9.90802C37.3512 9.02999 37.878 8.32758 39.0487 8.32758C40.2779 8.32758 40.7462 8.91298 40.7462 9.96661V10.552H39.634V9.90802C39.634 9.49827 39.4584 9.32267 39.0487 9.32267C38.6975 9.32267 38.4633 9.49827 38.4633 9.90802V10.0836C38.4633 10.4934 38.6975 10.7275 39.0487 11.0787L39.8096 11.8397C40.4535 12.4836 40.8047 12.8933 40.8047 13.7128V14.0641C40.8047 15.0592 40.2779 15.7615 39.0487 15.7615C37.8194 15.6444 37.3512 14.942 37.3512 14.0055ZM41.0974 8.38611H44.3168V9.38126H43.3217V15.5274H42.0925V9.38126H41.0974V8.38611ZM46.0729 12.2494V15.5274H44.9022V8.38611H46.6582C47.8874 8.38611 48.2972 8.97152 48.2972 9.96661V10.9032C48.2972 11.6641 48.0045 12.1324 47.3606 12.308L48.5313 15.5274H47.2436L46.0729 12.2494ZM46.0729 9.38126V11.6055H46.4826C46.8924 11.6055 47.068 11.3714 47.068 11.0202V9.96661C47.068 9.55687 46.8924 9.38126 46.4826 9.38126H46.0729ZM51.1069 12.8348V15.5274H49.8776V12.8348L48.5313 8.38611H49.7606L50.463 11.0787L51.1654 8.38611H52.3361L51.1069 12.8348ZM53.6239 14.4737L53.0385 16.1128H52.3361L52.5117 14.4153H53.6239V14.4737ZM55.5555 8.38611H56.7848V15.5274H55.5555V8.38611ZM58.4823 11.0787V15.586H57.4872V8.44465H58.6579L59.9457 12.5421V8.44465H60.9408V15.586H59.8871L58.4823 11.0787ZM62.6968 11.0787V15.586H61.7017V8.44465H62.8724L64.1602 12.5421V8.44465H65.1553V15.586H64.1016L62.6968 11.0787ZM65.9162 13.7128V10.2593C65.9162 9.14712 66.443 8.32758 67.7308 8.32758C69.0186 8.32758 69.5454 9.14712 69.5454 10.2593V13.7128C69.5454 14.825 69.0186 15.6444 67.7308 15.6444C66.443 15.6444 65.9162 14.825 65.9162 13.7128ZM68.3747 13.8884V10.0251C68.3747 9.6154 68.1991 9.26414 67.7308 9.26414C67.3211 9.26414 67.1455 9.55687 67.1455 10.0251V13.8884C67.1455 14.2981 67.3211 14.6494 67.7308 14.6494C68.1406 14.6494 68.3747 14.3567 68.3747 13.8884ZM74.1697 8.38611L72.8233 15.5274H71.5356L70.1893 8.38611H71.4185L72.238 13.3616L73.0575 8.38611H74.1697ZM73.994 15.5274L75.3404 8.38611H76.6867L78.033 15.5274H76.8037L76.5696 14.2396H75.3404L75.1062 15.5274H73.994ZM75.4574 13.303H76.394L75.9257 10.4348L75.4574 13.303ZM77.9159 8.38611H81.1353V9.38126H80.1402V15.5274H78.911V9.38126H77.9159V8.38611ZM81.7207 8.38611H82.9499V15.5274H81.7207V8.38611ZM83.7109 13.7128V10.2593C83.7109 9.14712 84.2377 8.32758 85.5254 8.32758C86.8132 8.32758 87.34 9.14712 87.34 10.2593V13.7128C87.34 14.825 86.8132 15.6444 85.5254 15.6444C84.2377 15.6444 83.7109 14.825 83.7109 13.7128ZM86.1108 13.8884V10.0251C86.1108 9.6154 85.9352 9.26414 85.4669 9.26414C85.0572 9.26414 84.8816 9.55687 84.8816 10.0251V13.8884C84.8816 14.2981 85.0572 14.6494 85.4669 14.6494C85.9352 14.6494 86.1108 14.3567 86.1108 13.8884ZM89.0961 11.0787V15.586H88.101V8.44465H89.2717L90.5594 12.5421V8.44465H91.5546V15.586H90.5009L89.0961 11.0787Z" fill="#FFFFF1"/>
<path d="M22.4836 26.8832L23.8299 19.7419H25.1763L26.5226 26.8832H25.2933L25.0592 25.5954H23.8299L23.5958 26.8832H22.4836ZM24.0056 24.6003H24.9421L24.4738 21.7321L24.0056 24.6003ZM28.0445 22.376V26.8832H27.0494V19.7419H28.2201L29.5078 23.8393V19.7419H30.5029V26.8832H29.4493L28.0445 22.376ZM34.8345 21.615V24.9515C34.8345 26.0637 34.3662 26.8832 33.0785 26.8832H31.2054V19.7419H33.0785C34.3662 19.7419 34.8345 20.5614 34.8345 21.615ZM32.9614 25.8881C33.4297 25.8881 33.6638 25.5954 33.6638 25.1856V21.4394C33.6638 21.0297 33.4882 20.737 32.9614 20.737H32.4346V25.9466L32.9614 25.8881ZM36.7076 19.7419H37.9369V26.8832H36.7076V19.7419ZM39.6929 22.376V26.8832H38.6978V19.7419H39.8685L41.1563 23.8393V19.7419H42.1514V26.8832H41.0978L39.6929 22.376ZM42.9123 19.7419H45.722V20.737H44.083V22.7857H45.3123V23.7808H44.083V26.9417H42.8538L42.9123 19.7419ZM47.4781 23.6052V26.8832H46.2488V19.7419H48.0049C49.2341 19.7419 49.6438 20.3272 49.6438 21.3223V22.2589C49.6438 23.0198 49.3512 23.4881 48.7073 23.6637L49.878 26.8832H48.5902L47.4781 23.6052ZM47.4781 20.6784V22.9028H47.8878C48.2976 22.9028 48.4731 22.6686 48.4731 22.3174V21.2638C48.4731 20.8541 48.2976 20.6784 47.8878 20.6784H47.4781ZM50.2292 26.8832L51.5755 19.7419H52.9218L54.2681 26.8832H53.0389L52.8048 25.5954H51.517L51.2829 26.8832H50.2292ZM51.6925 24.6003H52.6292L52.1609 21.7321L51.6925 24.6003ZM54.6779 25.3027V24.3661H55.79V25.3612C55.79 25.771 55.9656 26.0051 56.3753 26.0051C56.7266 26.0051 56.9022 25.771 56.9022 25.3612V25.0686C56.9022 24.6588 56.7266 24.4247 56.3753 24.0735L55.673 23.3711C54.9706 22.6686 54.6779 22.2589 54.6779 21.4394V21.2053C54.6779 20.3272 55.2046 19.6248 56.3753 19.6248C57.6046 19.6248 58.0729 20.2102 58.0729 21.2638V21.8491H56.9607V21.2053C56.9607 20.7955 56.7851 20.6199 56.3753 20.6199C56.0242 20.6199 55.79 20.7955 55.79 21.2053V21.3809C55.79 21.7906 56.0242 22.0247 56.3753 22.376L57.1364 23.1369C57.7802 23.7808 58.1314 24.1905 58.1314 25.01V25.3612C58.1314 26.3563 57.6046 27.0588 56.3753 27.0588C55.1462 27.0588 54.6779 26.2393 54.6779 25.3027ZM58.4827 19.7419H61.7023V20.737H60.7072V26.8832H59.478V20.737H58.4827V19.7419ZM63.5169 23.6052V26.8832H62.2877V19.7419H64.0437C65.2729 19.7419 65.6827 20.3272 65.6827 21.3223V22.2589C65.6827 23.0198 65.39 23.4881 64.7461 23.6637L65.9168 26.8832H64.6291L63.5169 23.6052ZM63.5169 20.6784V22.9028H63.9266C64.3364 22.9028 64.512 22.6686 64.512 22.3174V21.2638C64.512 20.8541 64.3364 20.6784 63.9266 20.6784H63.5169ZM69.8972 19.7419V25.1271C69.8972 26.2393 69.4289 26.9417 68.1997 26.9417C66.9119 26.9417 66.3851 26.2393 66.3851 25.1271V19.7419H67.6143V25.2442C67.6143 25.6539 67.79 25.9466 68.1997 25.9466C68.6094 25.9466 68.785 25.6539 68.785 25.2442V19.7419H69.8972ZM70.6582 25.01V21.5565C70.6582 20.4443 71.185 19.6248 72.4728 19.6248C73.8191 19.6248 74.1703 20.3858 74.1703 21.4394V22.2589H73.0581V21.3223C73.0581 20.8541 72.8825 20.6199 72.4728 20.6199C72.063 20.6199 71.8874 20.9126 71.8874 21.3809V25.2442C71.8874 25.6539 72.063 26.0051 72.4728 26.0051C72.8825 26.0051 73.0581 25.7125 73.0581 25.3027V23.9564H74.1703V25.1856C74.1703 26.1807 73.7605 26.9417 72.4728 26.9417C71.185 26.9417 70.6582 26.1222 70.6582 25.01ZM74.4044 19.7419H77.6238V20.737H76.6287V26.8832H75.3995V20.737H74.4044V19.7419ZM81.7213 19.7419V25.1271C81.7213 26.2393 81.253 26.9417 80.0238 26.9417C78.736 26.9417 78.2092 26.2393 78.2092 25.1271V19.7419H79.4384V25.2442C79.4384 25.6539 79.614 25.9466 80.0238 25.9466C80.4335 25.9466 80.6091 25.6539 80.6091 25.2442V19.7419H81.7213ZM83.6529 23.6052V26.8832H82.4237V19.7419H84.1798C85.409 19.7419 85.8187 20.3272 85.8187 21.3223V22.2589C85.8187 23.0198 85.5261 23.4881 84.8822 23.6637L86.0529 26.8832H84.7651L83.6529 23.6052ZM83.6529 20.6784V22.9028H84.0627C84.4724 22.9028 84.648 22.6686 84.648 22.3174V21.2638C84.648 20.8541 84.4724 20.6784 84.0627 20.6784H83.6529ZM86.5797 19.7419H89.4479V20.737H87.8089V22.7857H88.9796V23.7808H87.8089V25.9466H89.4479V26.9417H86.5797V19.7419Z" fill="#FFFFF1"/>
</svg>
