<svg width="95" height="95" viewBox="0 0 95 95" fill="none" xmlns="http://www.w3.org/2000/svg">
<path d="M9.70077 12.7176V27.2343H12.8616V8.26899H10.3447L7.35938 11.664V15.0005H7.41791L9.64218 12.7176H9.70077ZM24.5686 22.3759V13.1859C24.5686 10.2006 23.1053 8.03485 19.8273 8.03485C16.6079 8.03485 15.1445 10.2006 15.1445 13.1859V22.3759C15.1445 25.3027 16.6079 27.527 19.8273 27.527C23.0467 27.4685 24.5686 25.3027 24.5686 22.3759ZM18.3054 22.8442V12.6591C18.3054 11.4884 18.7152 10.6689 19.8273 10.6689C20.9395 10.6689 21.3492 11.4884 21.3492 12.6591V22.8442C21.3492 24.0149 20.9395 24.8344 19.8273 24.8344C18.7152 24.8344 18.3054 24.0149 18.3054 22.8442Z" fill="#FFFFF1"/>
<path d="M31.944 12.425V15.9371H30.6562V8.21045H32.5293C33.8171 8.21045 34.2854 8.85427 34.2854 9.9079V10.9031C34.2854 11.7225 33.9927 12.1908 33.2317 12.3664L34.461 15.8785H33.1147L31.944 12.425ZM31.944 9.26402V11.664H32.3537C32.822 11.664 32.9976 11.4298 32.9976 11.0201V9.9079C32.9976 9.49816 32.822 9.26402 32.3537 9.26402H31.944ZM35.1634 8.21045H38.2657V9.26402H36.4512V11.4884H37.7389V12.542H36.4512V14.8834H38.2657V15.9371H35.1634V8.21045ZM42.6559 10.3177V13.8883C42.6559 15.059 42.1876 15.9371 40.7827 15.9371H38.7926V8.21045H40.7827C42.1876 8.21045 42.6559 9.08847 42.6559 10.3177ZM40.6071 14.8834C41.134 14.8834 41.3681 14.5908 41.3681 14.1225V10.0836C41.3681 9.61529 41.1925 9.32256 40.6071 9.32256H40.0803V14.8834H40.6071ZM47.2801 8.21045V14.0054C47.2801 15.1761 46.7533 15.9955 45.4655 15.9955C44.1192 15.9955 43.5339 15.2346 43.5339 14.0054V8.21045H44.8217V14.181C44.8217 14.6493 44.9973 14.942 45.4655 14.942C45.9338 14.942 46.1094 14.6493 46.1094 14.181V8.21045H47.2801ZM48.0996 13.9468V10.2006C48.0996 8.97134 48.685 8.15186 50.0313 8.15186C51.4361 8.15186 51.8459 8.9714 51.8459 10.0836V11.0201H50.6752V9.9665C50.6752 9.49822 50.4995 9.20554 50.0313 9.20554C49.563 9.20554 49.3874 9.55675 49.3874 10.025V14.181C49.3874 14.6493 49.563 15.0005 50.0313 15.0005C50.4995 15.0005 50.6752 14.7078 50.6752 14.2395V12.8347H51.8459V14.181C51.8459 15.2932 51.3776 16.1127 50.0313 16.1127C48.685 15.9956 48.0996 15.1175 48.0996 13.9468ZM52.6653 8.21045H55.7677V9.26402H53.9531V11.4884H55.2409V12.542H53.9531V14.8834H55.7677V15.9371H52.6653V8.21045ZM60.4503 10.3177V13.8883C60.4503 15.059 59.982 15.9371 58.5774 15.9371H56.5872V8.21045H58.5774C59.982 8.21045 60.4503 9.08847 60.4503 10.3177ZM58.4018 14.8834C58.9286 14.8834 59.1625 14.5908 59.1625 14.1225V10.0836C59.1625 9.61529 58.9871 9.32256 58.4018 9.32256H57.875V14.8834H58.4018Z" fill="#FFFFF1"/>
<path d="M30.6562 19.4492H31.944V27.1173H30.6562V19.4492ZM33.8756 22.2589V27.1173H32.7634V19.4492H34.0512L35.4561 23.8393V19.4492H36.5097V27.1173H35.3975L33.8756 22.2589ZM37.2706 19.4492H40.373V20.5029H38.5584V22.7272H39.8462V23.7808H38.5584V26.1222H40.373V27.1758H37.2706V19.4492ZM42.3047 27.6441V27.1173C41.251 26.9417 40.8413 26.1807 40.8413 25.1271V21.3809C40.8413 20.1516 41.4266 19.3322 42.7729 19.3322C44.1192 19.3322 44.7631 20.2102 44.7631 21.3809V25.1271C44.7631 25.9466 44.4704 26.649 43.8266 26.9417L44.7631 27.1173V28.0539L42.3047 27.6441ZM43.4754 25.4198V21.2053C43.4754 20.737 43.2997 20.3858 42.8315 20.3858C42.3632 20.3858 42.1876 20.737 42.1876 21.2053V25.4198C42.1876 25.8881 42.3632 26.2393 42.8315 26.2393C43.2412 26.1807 43.4754 25.8881 43.4754 25.4198ZM49.2118 19.4492V25.2442C49.2118 26.4149 48.685 27.2344 47.3972 27.2344C46.0509 27.2344 45.4655 26.4734 45.4655 25.2442V19.4492H46.7533V25.4198C46.7533 25.8881 46.9289 26.1807 47.3972 26.1807C47.8655 26.1807 48.0411 25.8881 48.0411 25.4198V19.4492H49.2118ZM49.6215 27.1173L51.0849 19.4492H52.5483L54.0116 27.1173H52.6653L52.4312 25.7125H51.0849L50.8508 27.1173H49.6215ZM51.2605 24.6588H52.3141L51.7873 21.5565L51.2605 24.6588ZM54.597 19.4492H55.8848V26.0637H57.4067V27.1173H54.597V19.4492ZM57.992 19.4492H59.2796V27.1173H57.992V19.4492ZM59.8649 19.4492H63.3185V20.5029H62.2648V27.1173H60.9771V20.5029H59.9234V19.4492H59.8649ZM63.9038 19.4492H65.1916V27.1173H63.9038V19.4492ZM65.9525 19.4492H69.0549V20.5029H67.2403V22.7272H68.5281V23.7808H67.2403V26.1222H69.0549V27.1758H65.9525V19.4492ZM69.5817 25.4783V24.4247H70.811V25.4783C70.811 25.8881 70.9866 26.1807 71.4548 26.1807C71.8646 26.1807 72.0402 25.8881 72.0402 25.4783V25.1857C72.0402 24.7174 71.8646 24.4832 71.4548 24.0735L70.6939 23.3125C69.9329 22.6101 69.6403 22.1418 69.6403 21.2638V21.0297C69.6403 20.0931 70.2256 19.3322 71.4548 19.3322C72.7426 19.3322 73.2694 19.976 73.2694 21.0882V21.7321H72.0987V21.0882C72.0987 20.6199 71.9231 20.4443 71.5134 20.4443C71.1622 20.4443 70.928 20.6199 70.928 21.0882V21.2638C70.928 21.6736 71.1622 21.9662 71.5134 22.3174L72.3329 23.1369C73.0353 23.8393 73.3865 24.3076 73.3865 25.1271V25.4783C73.3865 26.532 72.8011 27.2929 71.5134 27.2929C70.05 27.2344 69.5817 26.4734 69.5817 25.4783Z" fill="#FFFFF1"/>
<path d="M31.6511 51.819L22.8123 60.6578L31.6511 69.5551V51.819ZM63.7283 69.5551L72.5671 60.6578L63.7283 51.819V69.5551ZM56.587 44.6778L47.6897 35.839L38.8509 44.6778H56.587ZM38.8509 76.6964L47.6897 85.5352L56.587 76.6964H38.8509ZM38.0899 52.4044H57.348V57.7311H38.0899V52.4044ZM38.0899 63.409H57.348V68.9698H38.0899V63.409Z" fill="#FFFFF1"/>
</svg>
