<svg width="95" height="95" viewBox="0 0 95 95" fill="none" xmlns="http://www.w3.org/2000/svg">
<path d="M12.5467 8.26899V27.2929H9.32724V12.7176L7.10291 15.059H7.04437V11.7226L9.97112 8.26899H12.5467ZM23.083 12.425V14.064C23.083 15.6444 22.2049 16.698 20.9172 17.1663C22.4976 17.5175 23.2586 18.6297 23.2586 20.3857V23.1954C23.2586 25.8295 21.8537 27.527 18.6343 27.527C15.4149 27.527 14.2442 25.6539 14.2442 22.7857V20.2687H17.1709V22.9613C17.1709 24.0734 17.5807 24.8344 18.6343 24.8344C19.6294 24.8344 20.0391 24.132 20.0391 23.1369V19.976C20.0391 18.9809 19.5709 18.4541 18.4587 18.4541H17.1124V15.9956H18.3416C19.3953 15.9956 20.0391 15.4688 20.0391 14.4737V12.425C20.0391 11.3713 19.6879 10.7275 18.6928 10.7275C17.6977 10.7275 17.3465 11.3713 17.3465 12.6006V14.5322H14.4198V12.8347C14.4198 10.025 15.5905 8.09338 18.8684 8.09338C21.7952 8.09338 23.083 9.73236 23.083 12.425ZM82.3201 59.37C79.8617 55.9165 68.6229 41.9851 47.7262 41.9851C26.8292 41.9851 15.649 55.8579 13.132 59.37C13.0149 59.5456 12.9564 59.6627 12.8393 59.7798C12.8979 59.8968 13.0149 60.0139 13.132 60.1895C15.5905 63.6431 26.8292 77.5744 47.7262 77.5744C68.5644 77.5744 79.8031 63.7016 82.3201 60.1895C82.4372 60.0139 82.4957 59.8968 82.6128 59.7798C82.4957 59.6627 82.4372 59.4871 82.3201 59.37ZM36.0777 50.7654C36.2533 50.4727 36.8972 49.7118 36.9557 49.5947C37.1314 49.3605 37.424 49.3605 37.6582 49.302C37.8923 49.2435 38.185 49.3605 38.185 49.5362C38.2435 49.7118 38.1265 50.3556 38.0094 50.4727C37.7167 50.7654 36.8972 51.2337 36.4875 51.1751C36.1948 51.1166 36.0192 50.8825 36.0777 50.7654ZM35.3753 52.2288C35.4338 52.1702 35.4338 52.1702 35.4338 52.1117C35.668 51.819 36.1948 51.7604 36.6045 51.702C36.9557 51.6434 37.424 51.819 37.4826 52.0532C37.5411 52.2873 36.6045 52.7556 36.3704 52.8726C35.8436 53.3409 35.0826 54.2775 34.6143 54.3946C34.4387 54.4531 34.3217 54.3945 34.2631 54.336C34.5558 53.6921 34.9656 52.9312 35.3753 52.2288ZM43.1605 68.2673C42.8678 69.3795 42.5751 69.7893 42.2824 70.1405C41.9898 70.4917 40.9361 70.96 40.2922 70.9014C39.6484 70.8429 39.5313 69.0868 39.5313 68.2088C39.5313 67.9161 39.063 68.8527 38.8289 66.921C38.6533 65.6918 37.8923 67.0381 37.8338 66.2186C37.7752 65.3991 37.3655 65.5747 36.9557 65.0479C36.546 64.5211 36.0192 65.1065 35.4924 65.3406C34.907 65.5747 35.1412 65.7503 34.3802 65.4577H34.3217C33.5607 63.7016 33.151 61.8285 33.151 59.7798C33.151 59.3115 33.151 58.7847 33.2095 58.3164C33.2095 58.2579 33.268 58.1993 33.3266 58.1993C34.0875 57.2628 34.0875 57.0872 34.0875 57.0872L34.9656 56.7945C34.9656 56.7945 36.3119 57.0286 37.3655 57.3798C38.185 57.6725 39.5313 58.4335 40.2922 58.0823C40.8776 57.8481 41.2873 57.5555 41.2288 57.0872C41.1703 56.5018 40.702 56.3848 40.1752 56.736C39.941 56.853 39.5313 55.8579 39.1801 55.9165C38.8289 55.975 39.5898 57.1457 39.2971 57.1457C39.0045 57.2042 38.4191 55.9165 38.3021 55.7409C38.185 55.5653 37.7752 55.0384 37.3655 55.4482C36.4875 56.2677 35.1412 56.2091 34.8485 56.4433C33.9705 57.0872 33.7949 56.2091 33.7949 55.7409C33.8534 55.6238 33.8534 55.5067 33.9119 55.3897C34.2046 55.097 35.1997 54.9799 35.5509 55.214C35.9021 55.4482 36.1948 55.1555 36.3704 54.9799C36.546 54.8043 36.4875 54.5702 36.3704 54.3946C36.2533 54.219 36.546 54.0434 36.7801 53.9848C36.9558 53.9263 37.5996 53.458 37.8923 53.3409C38.1264 53.1653 39.4728 53.0483 40.1166 53.3409C40.702 53.6336 41.2873 53.3995 41.58 53.0483C41.9312 52.58 42.3995 52.2873 42.6336 52.1702C42.8678 52.0532 42.1068 51.4093 41.5215 52.1117C40.9361 52.8727 40.6435 52.9312 40.3508 52.9312C40.0581 52.9312 38.4191 52.5214 38.185 51.9946C38.0094 51.4678 38.7118 51.0581 39.3557 50.7654C39.9996 50.4727 41.6971 50.4727 42.1068 50.3556C42.9849 50.18 44.097 49.7118 44.6824 50.1215C45.2677 50.4727 42.341 51.1751 43.2775 51.702C43.6287 51.8776 45.1507 50.8239 45.6775 50.5312C46.9067 49.8874 44.4482 49.6532 44.7994 48.3655C45.1507 46.9021 41.7556 47.4288 40.1166 47.6045C42.3995 46.1411 45.0336 45.3216 47.9603 45.3216C54.8089 45.3216 60.5451 50.063 62.067 56.4433C62.067 56.736 62.0085 56.9701 62.0085 57.0872C61.8914 57.614 60.8963 58.0823 60.311 57.2042C60.1354 56.9701 59.55 56.3848 59.55 57.4384C59.55 58.4335 60.5451 58.5505 59.6086 59.1359C58.6722 59.7212 58.4966 59.6042 58.0869 59.7212C57.6771 59.8969 57.2674 60.8919 57.3259 61.4773C57.443 62.0041 58.7308 63.526 57.7942 63.4675C57.5601 63.4675 55.804 62.2382 55.5113 61.4773C55.2187 60.6578 54.8675 59.8968 54.6333 59.253C54.3992 58.6676 53.7553 58.492 53.287 58.8432C52.7602 59.1944 53.4041 59.5456 53.0529 60.3066C52.7017 61.0675 52.409 61.7114 51.8822 61.1261C50.4773 59.4871 48.4286 60.3066 48.0774 58.492C47.9018 57.4969 47.0823 57.614 46.3799 57.0286C45.6775 56.5018 45.2677 56.1506 45.1506 56.5604C45.0336 56.9116 47.375 58.7847 47.5506 59.253C47.7847 59.9554 46.8482 60.5993 46.1457 60.7163C45.4433 60.8919 45.1507 60.3066 44.4482 59.6042C43.7458 58.9018 43.4531 58.3749 43.4531 58.9603C43.3946 59.7798 44.097 60.9505 44.7994 61.3602C45.3848 61.7114 46.0287 61.887 45.8531 62.5309C45.6775 63.1163 45.8531 62.7651 45.2092 63.4675C44.5653 64.1114 44.4482 64.3455 44.4482 65.2235C44.5068 66.1601 44.2726 66.1601 44.097 66.921C43.8043 67.7991 43.4531 67.1552 43.1605 68.2673ZM58.7893 62.4724C59.2573 62.4139 60.0183 63.1163 59.7256 63.3504C59.433 63.5846 58.7308 63.526 58.321 63.2333C57.9698 62.9407 58.5552 62.4724 58.7893 62.4724ZM58.1454 62.0041C57.9698 61.9456 57.8527 61.77 57.7357 61.4188C57.6186 61.0676 57.9113 60.8334 58.204 61.009C58.4966 61.1846 58.9064 61.5944 58.9064 61.8285C58.9064 62.1212 58.321 62.1212 58.1454 62.0041ZM51.7066 62.0041C51.4139 62.2383 50.7115 62.1797 50.3017 61.887C49.9505 61.5944 50.5359 61.1261 50.77 61.1261C51.2968 61.0676 51.9992 61.77 51.7066 62.0041ZM45.7945 64.8723C45.6189 65.2235 45.0336 67.6235 44.6824 67.3308C44.3312 67.0381 44.858 64.5211 44.9165 64.287C45.5019 63.2919 46.7311 63.3504 45.7945 64.8723ZM47.7847 74.355C46.3799 74.355 44.975 74.1208 43.6873 73.7696C43.5117 73.594 43.3946 73.3599 43.5117 73.0672C43.9799 71.8965 45.3263 71.4282 46.3799 71.3112C48.7213 71.077 51.8236 72.8331 52.3505 72.5404C52.8187 72.2477 53.8138 70.96 55.2772 71.0185C56.2723 71.077 56.2723 71.2526 56.6235 71.3697C54.165 73.2428 51.0627 74.355 47.7847 74.355ZM58.0283 70.1405C57.9113 70.0819 57.7357 70.0234 57.5601 69.9649C56.7406 69.5551 56.8576 70.199 56.4479 70.0819C56.0382 69.9649 56.9162 69.0283 55.6869 69.7893C54.5162 70.5502 54.8089 69.6722 54.3406 68.3844C53.8138 67.0966 54.926 65.6333 55.8626 65.2821C57.1503 64.8138 57.9113 64.7552 58.4966 64.5796C60.2524 64.1699 60.6037 63.1163 60.9549 63.7602L61.1305 64.1114C61.2475 64.287 61.3646 64.6967 61.3646 65.0479C60.6036 66.9796 59.4915 68.6771 58.0283 70.1405ZM62.0085 62.8236C61.5987 62.7065 59.9598 60.4822 61.3061 58.9603C61.5402 58.7261 60.8963 58.0237 61.0719 57.9652C61.7743 57.9067 62.1256 58.3749 62.3597 58.9603V59.7798C62.3012 60.8334 62.1841 61.8285 62.0085 62.8236ZM30.6925 14.0054V10.2592C30.6925 9.02994 31.2779 8.21045 32.6242 8.21045C34.029 8.21045 34.4387 9.02994 34.4387 10.1421V11.0787H33.268V10.0836C33.268 9.61529 33.0924 9.32262 32.6242 9.32262C32.1559 9.32262 31.9803 9.67383 31.9803 10.1421V14.2981C31.9803 14.7664 32.1559 15.1176 32.6242 15.1176C33.0924 15.1176 33.268 14.8249 33.268 14.3566V12.9518H34.4387V14.2981C34.4387 15.4103 33.9705 16.2297 32.6242 16.2297C31.2779 16.0541 30.6925 15.1761 30.6925 14.0054ZM35.2582 8.26899H36.546V14.8834H38.0679V15.9371H35.2582V8.26899ZM38.8289 8.26899H40.1166V15.9371H38.8289V8.26899ZM44.6238 10.9616L43.6873 15.9371H43.1019L42.1654 10.9616V15.9371H41.1117V8.26899H42.6336L43.4531 12.6006L44.2141 8.26899H45.8531V15.9371H44.6824L44.6238 10.9616ZM46.497 15.9956L47.9603 8.32752H49.4237L50.8871 15.9956H49.5408L49.3066 14.5908H47.9603L47.7262 15.9956H46.497ZM48.0774 13.5371H49.131L48.6042 10.4348L48.0774 13.5371ZM50.7115 8.26899H54.165V9.32262H53.1114V15.9371H51.8236V9.32262H50.77L50.7115 8.26899ZM54.8675 8.26899H57.9698V9.32262H56.1552V11.5469H57.443V12.6006H56.1552V14.942H57.9698V15.9956H54.8675V8.26899ZM30.4584 27.1173L31.9217 19.4492H33.3851L34.8485 27.1173H33.5607L33.3266 25.7124H31.9803L31.7461 27.1173H30.4584ZM32.0973 24.6588H33.151L32.6242 21.5564L32.0973 24.6588ZM35.2582 25.1271V21.3808C35.2582 20.1516 35.8436 19.3321 37.1899 19.3321C38.5947 19.3321 39.0045 20.1516 39.0045 21.2638V22.2003H37.8338V21.2052C37.8338 20.7369 37.6582 20.4443 37.1899 20.4443C36.7216 20.4443 36.546 20.7955 36.546 21.2638V25.4197C36.546 25.888 36.7216 26.2392 37.1899 26.2392C37.6582 26.2392 37.8338 25.9466 37.8338 25.4783V24.0734H39.0045V25.4197C39.0045 26.5319 38.5362 27.3514 37.1899 27.3514C35.7851 27.2343 35.2582 26.2978 35.2582 25.1271ZM39.4728 19.4492H42.9263V20.5028H41.8727V27.1173H40.5849V20.5028H39.5313L39.4728 19.4492ZM43.6287 19.4492H44.9165V27.1173H43.6287V19.4492ZM45.7945 25.1271V21.3808C45.7945 20.1516 46.3799 19.3321 47.7262 19.3321C49.0725 19.3321 49.7164 20.2101 49.7164 21.3808V25.1271C49.7164 26.2978 49.131 27.1758 47.7262 27.1758C46.3799 27.2343 45.7945 26.2978 45.7945 25.1271ZM48.3701 25.3612V21.2052C48.3701 20.7369 48.1945 20.3857 47.7262 20.3857C47.2579 20.3857 47.0823 20.7369 47.0823 21.2052V25.3612C47.0823 25.8295 47.2579 26.1807 47.7262 26.1807C48.1945 26.1222 48.3701 25.8295 48.3701 25.3612ZM51.648 22.2589V27.1173H50.5359V19.4492H51.8236L53.2285 23.8393V19.4492H54.2821V27.1173H53.1699L51.648 22.2589Z" fill="#FFFFF1"/>
</svg>
