<svg width="95" height="95" viewBox="0 0 95 95" fill="none" xmlns="http://www.w3.org/2000/svg">
<path d="M14.8657 8.26904V27.2929H11.6463V12.7177L9.3634 15.0591V11.7226L12.2902 8.26904H14.8657ZM16.3291 8.26904H24.2898V11.2543L20.1338 27.2929H16.9729L21.246 10.9031H16.3291V8.26904ZM71.7616 57.497C71.7616 50.8825 66.4934 45.4973 59.9375 45.2631C58.2401 40.5218 53.6744 37.0683 48.3477 37.0683C43.021 37.0683 38.4553 40.4633 36.7578 45.2631C30.2019 45.4973 24.9337 50.8825 24.9337 57.497C24.9337 61.4188 26.8068 64.9309 29.675 67.1552C29.3823 68.2089 29.2068 69.3796 29.2068 70.5503C29.2068 77.3403 34.709 82.8426 41.4991 82.8426C44.0746 82.8426 46.4745 82.0231 48.4062 80.6768C50.3378 81.9646 52.6793 82.7255 55.1963 82.7255C61.9862 82.7255 67.4885 77.2232 67.4885 70.4332C67.4885 69.2625 67.3129 68.1503 67.0202 67.0967C69.947 64.9309 71.7616 61.4188 71.7616 57.497ZM58.1816 49.3606C58.1816 54.2775 54.5524 58.3164 49.8111 59.0189C49.7525 58.5505 49.694 58.0238 49.694 57.497C49.694 52.58 53.3231 48.5411 58.0644 47.8387C58.123 48.307 58.1816 48.8337 58.1816 49.3606ZM48.4648 77.5159C46.6502 75.7599 45.4794 73.2429 45.4794 70.4917C45.4794 67.7991 46.5916 65.3406 48.3477 63.5261C50.1623 65.2821 51.3329 67.7991 51.3329 70.5503C51.3329 73.3014 50.2208 75.7599 48.4648 77.5159ZM38.7479 47.8387C43.4892 48.5411 47.1185 52.58 47.1185 57.497C47.1185 58.0238 47.0599 58.492 47.0014 59.0189C42.2601 58.3164 38.6309 54.2775 38.6309 49.3606C38.6309 48.8337 38.6308 48.307 38.7479 47.8387ZM46.0648 61.8871C44.4258 65.1065 41.1479 67.3308 37.3431 67.3308C35.7041 67.3308 34.1822 66.9211 32.8359 66.2187C34.4749 62.9992 37.7529 60.7749 41.6162 60.7749C43.1381 60.7749 44.7185 61.1847 46.0648 61.8871ZM50.7476 61.8285C52.0939 61.1261 53.6158 60.7164 55.2548 60.7164C59.1181 60.7164 62.4545 62.9407 64.035 66.2187C62.6887 66.9211 61.1082 67.3308 59.5278 67.3308C55.6645 67.3308 52.328 65.1065 50.7476 61.8285ZM48.4062 39.5267C52.4451 39.5267 55.8987 41.9267 57.3621 45.4388C53.3817 46.1412 50.0452 48.7752 48.4062 52.3459C46.7672 48.7752 43.4308 46.1412 39.4504 45.4388C40.9138 41.9852 44.3673 39.5267 48.4062 39.5267ZM27.5092 57.497C27.5092 52.4629 31.3726 48.307 36.231 47.7802C36.1724 48.307 36.1138 48.8337 36.1138 49.3606C36.1138 52.9312 37.6358 56.1506 40.0943 58.4335C35.9968 58.9018 32.5433 61.3603 30.6701 64.8138C28.7385 62.9992 27.5092 60.4237 27.5092 57.497ZM31.7237 70.6088C31.7237 69.9064 31.7823 69.2625 31.9579 68.5601C33.5969 69.321 35.3529 69.7893 37.2845 69.7893C39.4503 69.7893 41.4406 69.2625 43.1966 68.2674C43.0796 68.9698 42.9625 69.7308 42.9625 70.5503C42.9625 73.8867 44.3088 76.872 46.416 79.0964C44.9527 79.9744 43.2552 80.4427 41.4991 80.4427C36.1139 80.3841 31.7237 75.994 31.7237 70.6088ZM65.0886 70.4917C65.0886 75.8769 60.6985 80.2671 55.3134 80.2671C53.5573 80.2671 51.9183 79.7988 50.4549 78.9793C52.5622 76.755 53.85 73.8282 53.85 70.5503C53.85 69.7308 53.7915 68.9698 53.6158 68.2089C55.3719 69.204 57.4206 69.7308 59.5863 69.7308C61.518 69.7308 63.3325 69.2625 64.913 68.5015C64.9715 69.204 65.0886 69.8478 65.0886 70.4917ZM56.7182 58.3164C59.1181 56.0921 60.6399 52.8727 60.6399 49.3021C60.6399 48.7752 60.5814 48.2484 60.5229 47.7216C65.4398 48.2484 69.2446 52.4044 69.2446 57.4384C69.2446 60.3066 68.0153 62.8822 66.0251 64.6968C64.2691 61.3017 60.8155 58.8433 56.7182 58.3164Z" fill="#FFFFF1"/>
<path d="M30.7869 8.26905H32.7185C34.0063 8.26905 34.4746 8.91293 34.4746 9.96656V11.6055C34.4746 12.6592 34.0063 13.3616 32.7185 13.3616H32.0746V15.9957H30.7869V8.26905ZM32.1332 9.32268V12.3665H32.6014C33.0697 12.3665 33.2453 12.1324 33.2453 11.7226V9.96656C33.2453 9.55681 33.0697 9.32268 32.6014 9.32268H32.1332ZM34.6502 15.9957L36.1135 8.32758H37.5769L39.0403 15.9957H37.694L37.4599 14.5908H36.1135L35.8794 15.9957H34.6502ZM36.2892 13.5372H37.3428L36.816 10.4348L36.2892 13.5372ZM41.0305 12.425V15.9371H39.7427V8.26905H41.6158C42.9036 8.26905 43.3719 8.91293 43.3719 9.96656V10.9617C43.3719 11.7811 43.0792 12.2494 42.3183 12.425L43.5475 15.9371H42.2012L41.0305 12.425ZM41.0305 9.32268V11.7226H41.4402C41.9085 11.7226 42.0841 11.4885 42.0841 11.0787V9.96656C42.0841 9.55681 41.9085 9.32268 41.4402 9.32268H41.0305ZM43.8402 8.26905H47.2937V9.32268H46.2401V15.9371H44.9523V9.32268H43.8987V8.26905H43.8402ZM49.1668 11.1373V15.9957H48.0547V8.32758H49.3425L50.7473 12.7177V8.32758H51.8009V15.9957H50.6888L49.1668 11.1373ZM52.9131 8.26905H56.0154V9.32268H54.2009V11.547H55.4886V12.6006H54.2009V14.942H56.0154V15.9957H52.9131V8.26905ZM58.1227 12.425V15.9371H56.8349V8.26905H58.7081C59.9959 8.26905 60.4642 8.91293 60.4642 9.96656V10.9617C60.4642 11.7811 60.1715 12.2494 59.4106 12.425L60.6398 15.9371H59.2934L58.1227 12.425ZM58.1227 9.32268V11.7226H58.5324C59.0007 11.7226 59.1763 11.4885 59.1763 11.0787V9.96656C59.1763 9.55681 59.0007 9.32268 58.5324 9.32268H58.1227ZM61.1081 14.2981V13.3031H62.3373V14.3567C62.3373 14.7664 62.5129 15.0591 62.9812 15.0591C63.391 15.0591 63.5666 14.7664 63.5666 14.3567V14.064C63.5666 13.5957 63.391 13.3616 62.9812 12.9518L62.2203 12.1909C61.4593 11.4885 61.1666 11.0202 61.1666 10.1422V9.90802C61.1666 8.97146 61.752 8.21051 62.9812 8.21051C64.269 8.21051 64.7958 8.8544 64.7958 9.96656V10.6104H63.6251V9.96656C63.6251 9.49828 63.4495 9.32268 63.0398 9.32268C62.6885 9.32268 62.4544 9.49828 62.4544 9.96656V10.1422C62.4544 10.5519 62.6885 10.8446 63.0398 11.1958L63.8592 12.0153C64.5617 12.7177 64.9129 13.186 64.9129 14.0055V14.3567C64.9129 15.4103 64.3275 16.1713 63.0398 16.1713C61.6349 16.0542 61.1081 15.3518 61.1081 14.2981ZM68.1908 12.6006H66.9616V15.9957H65.6153V8.32758H66.9031V11.6055H68.1323V8.32758H69.4201V15.9957H68.1323V12.6006H68.1908ZM70.3566 8.26905H71.6444V15.9371H70.3566V8.26905ZM72.4639 8.26905H74.3955C75.6833 8.26905 76.1516 8.91293 76.1516 9.96656V11.6055C76.1516 12.6592 75.6833 13.3616 74.3955 13.3616H73.8102V15.9957H72.5224L72.4639 8.26905ZM73.8102 9.32268V12.3665H74.2785C74.7468 12.3665 74.9224 12.1324 74.9224 11.7226V9.96656C74.9224 9.55681 74.7468 9.32268 74.2785 9.32268H73.8102ZM76.6784 14.2981V13.3031H77.9076V14.3567C77.9076 14.7664 78.0832 15.0591 78.5515 15.0591C78.9613 15.0591 79.1369 14.7664 79.1369 14.3567V14.064C79.1369 13.5957 78.9613 13.3616 78.5515 12.9518L77.7906 12.1909C77.0296 11.4885 76.7369 11.0202 76.7369 10.1422V9.90802C76.7369 8.97146 77.3223 8.21051 78.5515 8.21051C79.8393 8.21051 80.3661 8.8544 80.3661 9.96656V10.6104H79.1954V9.96656C79.1954 9.49828 79.0198 9.32268 78.6101 9.32268C78.2588 9.32268 78.0247 9.49828 78.0247 9.96656V10.1422C78.0247 10.5519 78.2588 10.8446 78.6101 11.1958L79.4295 12.0153C80.132 12.7177 80.4832 13.186 80.4832 14.0055V14.3567C80.4832 15.4103 79.8978 16.1713 78.6101 16.1713C77.2052 16.0542 76.6784 15.3518 76.6784 14.2981Z" fill="#FFFFF1"/>
<path d="M30.7869 19.4492H33.8307V20.5029H32.0746V22.7272H33.3624V23.7808H32.0746V27.1758H30.7869V19.4492ZM34.299 25.1857V21.4394C34.299 20.2102 34.8843 19.3907 36.2306 19.3907C37.5769 19.3907 38.2208 20.2687 38.2208 21.4394V25.1857C38.2208 26.3564 37.6355 27.2344 36.2306 27.2344C34.8843 27.2344 34.299 26.3564 34.299 25.1857ZM36.933 25.3613V21.2053C36.933 20.737 36.7574 20.3858 36.2892 20.3858C35.8209 20.3858 35.6453 20.737 35.6453 21.2053V25.3613C35.6453 25.8295 35.8209 26.1807 36.2892 26.1807C36.6989 26.1807 36.933 25.8295 36.933 25.3613ZM40.3281 23.6052V27.1173H39.0403V19.4492H40.9134C42.2012 19.4492 42.6695 20.0931 42.6695 21.1467V22.1418C42.6695 22.9613 42.3768 23.4296 41.6158 23.6052L42.8451 27.1173H41.4988L40.3281 23.6052ZM40.3281 20.5029V22.9028H40.7378C41.2061 22.9028 41.3817 22.6686 41.3817 22.2589V21.1467C41.3817 20.737 41.2061 20.5029 40.7378 20.5029H40.3281ZM44.7767 19.4492H48.2303V20.5029H47.1767V27.1173H45.8889V20.5029H44.8353V19.4492H44.7767ZM51.3326 23.7808H50.1034V27.1758H48.8156V19.5078H50.1034V22.7857H51.3326V19.5078H52.6204V27.1758H51.3326V23.7808ZM53.4984 19.4492H56.6008V20.5029H54.7862V22.7272H56.074V23.7808H54.7862V26.1222H56.6008V27.1758H53.4984V19.4492ZM60.7569 23.0784H62.5715V27.1758H61.6349V26.3564C61.4593 26.9417 61.1081 27.2929 60.4057 27.2929C59.2934 27.2929 58.7666 26.4149 58.7666 25.2442V21.4979C58.7666 20.2687 59.3521 19.4492 60.6984 19.4492C62.1032 19.4492 62.5715 20.2687 62.5715 21.3809V22.0833H61.4008V21.3223C61.4008 20.8541 61.2252 20.5614 60.7569 20.5614C60.2886 20.5614 60.113 20.9126 60.113 21.3809V25.5369C60.113 26.0051 60.2886 26.3564 60.7569 26.3564C61.1666 26.3564 61.4008 26.1222 61.4008 25.5954V24.2491H60.8154V23.0784H60.7569ZM63.2739 25.1857V21.4394C63.2739 20.2102 63.8592 19.3907 65.2055 19.3907C66.5519 19.3907 67.1957 20.2687 67.1957 21.4394V25.1857C67.1957 26.3564 66.6104 27.2344 65.2055 27.2344C63.9178 27.2344 63.2739 26.3564 63.2739 25.1857ZM65.908 25.3613V21.2053C65.908 20.737 65.7324 20.3858 65.2641 20.3858C64.7958 20.3858 64.6202 20.737 64.6202 21.2053V25.3613C64.6202 25.8295 64.7958 26.1807 65.2641 26.1807C65.7324 26.1807 65.908 25.8295 65.908 25.3613ZM67.6055 27.1758L69.0689 19.5078H70.5322L71.9956 27.1758H70.6493L70.4152 25.771H69.0689L68.8347 27.1758H67.6055ZM69.1859 24.7174H70.2396L69.7127 21.615L69.1859 24.7174ZM72.6395 19.4492H73.9273V26.0637H75.4492V27.1173H72.6395V19.4492ZM75.9174 25.4783V24.4247H77.1467V25.4783C77.1467 25.8881 77.3223 26.1807 77.7906 26.1807C78.2003 26.1807 78.3759 25.8881 78.3759 25.4783V25.1857C78.3759 24.7174 78.2003 24.4832 77.7906 24.0735L77.0296 23.3125C76.2687 22.6101 75.976 22.1418 75.976 21.2638V21.0297C75.976 20.0931 76.5613 19.3322 77.7906 19.3322C79.0783 19.3322 79.6052 19.976 79.6052 21.0882V21.7321H78.4345V21.0882C78.4345 20.6199 78.2588 20.4443 77.8491 20.4443C77.4979 20.4443 77.2638 20.6199 77.2638 21.0882V21.2638C77.2638 21.6736 77.4979 21.9662 77.8491 22.3174L78.6686 23.1369C79.371 23.8393 79.7222 24.3076 79.7222 25.1271V25.4783C79.7222 26.532 79.1369 27.2929 77.8491 27.2929C76.4443 27.2344 75.9174 26.532 75.9174 25.4783Z" fill="#FFFFF1"/>
</svg>
